<svg xmlns="http://www.w3.org/2000/svg" viewBox="0 0 320 200">
<defs><linearGradient id="sky" x1="0" y1="0" x2="0" y2="1"><stop offset="0" stop-color="#241243"/><stop offset="0.65" stop-color="#150a2c"/><stop offset="1" stop-color="#0a0518"/></linearGradient>
<radialGradient id="moon"><stop offset="0" stop-color="#c9b3ef"/><stop offset="0.55" stop-color="#7c58b8"/><stop offset="1" stop-color="#3a2470" stop-opacity="0"/></radialGradient></defs>
<rect width="320" height="200" fill="url(#sky)"/>
<circle cx="93" cy="67" r="58" fill="url(#moon)" opacity="0.85"/>
<circle cx="93" cy="67" r="30" fill="#171034" stroke="#9d7fd6" stroke-width="1.2"/>
<path d="M-10 145.8902472257614 C 118.9989423751831 103.32910418510437, 189.89721536636353 185.77780485153198, 330 116.96941554546356" stroke="#8a63c9" stroke-width="21.668006420135498" fill="none" opacity="0.14"/><path d="M-10 111.38995230197906 C 83.45828890800476 45.931620597839355, 183.31601858139038 154.65649962425232, 330 74.05615150928497" stroke="#8a63c9" stroke-width="16.405489444732666" fill="none" opacity="0.10"/><path d="M-10 156.54209911823273 C 117.27890610694885 89.61839973926544, 227.85773277282715 212.82814800739288, 330 111.65941059589386" stroke="#8a63c9" stroke-width="16.331339716911316" fill="none" opacity="0.17"/><circle cx="52" cy="159" r="1.5" fill="#d9c8f5" opacity="0.36"/><circle cx="171" cy="165" r="1.6" fill="#d9c8f5" opacity="0.56"/><circle cx="98" cy="134" r="1.4" fill="#d9c8f5" opacity="0.51"/><circle cx="181" cy="135" r="1.0" fill="#d9c8f5" opacity="0.74"/><circle cx="13" cy="64" r="1.5" fill="#d9c8f5" opacity="0.64"/><circle cx="167" cy="120" r="1.0" fill="#d9c8f5" opacity="0.89"/><circle cx="79" cy="43" r="1.4" fill="#d9c8f5" opacity="0.77"/><circle cx="77" cy="11" r="0.9" fill="#d9c8f5" opacity="0.62"/><circle cx="229" cy="113" r="1.1" fill="#d9c8f5" opacity="0.65"/><circle cx="17" cy="68" r="1.7" fill="#d9c8f5" opacity="0.77"/><circle cx="208" cy="145" r="1.4" fill="#d9c8f5" opacity="0.67"/><circle cx="287" cy="81" r="1.1" fill="#d9c8f5" opacity="0.38"/><circle cx="173" cy="149" r="1.0" fill="#d9c8f5" opacity="0.63"/><circle cx="154" cy="64" r="1.8" fill="#d9c8f5" opacity="0.40"/><circle cx="25" cy="179" r="0.8" fill="#d9c8f5" opacity="0.62"/><circle cx="127" cy="150" r="0.8" fill="#d9c8f5" opacity="0.38"/><g transform="translate(160,128)"><circle r="30" fill="none" stroke="#7b53c0" stroke-width="5"/><circle r="30" fill="none" stroke="#0d0722" stroke-width="1.5"/><path d="M0 -13 L 11 4 L 0 15 L -11 4 Z" fill="#b79ae8" stroke="#0d0722" stroke-width="1.4"/></g>
<rect width="320" height="200" fill="none" stroke="#000" stroke-opacity="0.35" stroke-width="4"/>
</svg>
