<svg xmlns="http://www.w3.org/2000/svg" viewBox="0 0 320 200">
<defs><linearGradient id="sky" x1="0" y1="0" x2="0" y2="1"><stop offset="0" stop-color="#241243"/><stop offset="0.65" stop-color="#150a2c"/><stop offset="1" stop-color="#0a0518"/></linearGradient>
<radialGradient id="moon"><stop offset="0" stop-color="#c9b3ef"/><stop offset="0.55" stop-color="#7c58b8"/><stop offset="1" stop-color="#3a2470" stop-opacity="0"/></radialGradient></defs>
<rect width="320" height="200" fill="url(#sky)"/>
<circle cx="84" cy="51" r="56" fill="url(#moon)" opacity="0.85"/>
<circle cx="84" cy="51" r="29" fill="#171034" stroke="#9d7fd6" stroke-width="1.2"/>
<path d="M-10 155.20379066467285 C 72.48913049697876 113.06362748146057, 234.92998838424683 197.56819307804108, 330 131.68453693389893" stroke="#8a63c9" stroke-width="13.10209608078003" fill="none" opacity="0.11"/><path d="M-10 79.89736497402191 C 106.95266604423523 29.464181661605835, 218.60748767852783 114.00034368038177, 330 46.35276734828949" stroke="#8a63c9" stroke-width="18.45197069644928" fill="none" opacity="0.17"/><path d="M-10 155.70108234882355 C 66.86354756355286 95.16156256198883, 228.65498900413513 212.6464557647705, 330 96.59052670001984" stroke="#8a63c9" stroke-width="13.167016625404358" fill="none" opacity="0.19"/><circle cx="189" cy="74" r="0.6" fill="#d9c8f5" opacity="0.37"/><circle cx="139" cy="173" r="1.3" fill="#d9c8f5" opacity="0.40"/><circle cx="149" cy="173" r="0.9" fill="#d9c8f5" opacity="0.65"/><circle cx="106" cy="124" r="1.4" fill="#d9c8f5" opacity="0.56"/><circle cx="187" cy="175" r="0.7" fill="#d9c8f5" opacity="0.75"/><circle cx="234" cy="166" r="0.8" fill="#d9c8f5" opacity="0.83"/><circle cx="198" cy="179" r="1.7" fill="#d9c8f5" opacity="0.84"/><circle cx="195" cy="129" r="0.7" fill="#d9c8f5" opacity="0.81"/><circle cx="169" cy="48" r="1.6" fill="#d9c8f5" opacity="0.34"/><circle cx="136" cy="102" r="1.1" fill="#d9c8f5" opacity="0.41"/><circle cx="37" cy="189" r="1.2" fill="#d9c8f5" opacity="0.32"/><circle cx="54" cy="69" r="1.5" fill="#d9c8f5" opacity="0.61"/><circle cx="164" cy="125" r="1.1" fill="#d9c8f5" opacity="0.34"/><circle cx="90" cy="93" r="0.5" fill="#d9c8f5" opacity="0.46"/><circle cx="288" cy="40" r="1.8" fill="#d9c8f5" opacity="0.53"/><circle cx="29" cy="158" r="0.8" fill="#d9c8f5" opacity="0.55"/><g transform="translate(160,128)"><path d="M-26 -18 A 34 34 0 1 0 26 -18 A 27 27 0 1 1 -26 -18 Z" fill="#0d0722" stroke="#7b53c0" stroke-width="2"/><path d="M-34 26 L 34 -10 M -20 36 L 30 8 M -6 44 L 26 26" stroke="#b79ae8" stroke-width="2.4" opacity="0.85"/></g>
<rect width="320" height="200" fill="none" stroke="#000" stroke-opacity="0.35" stroke-width="4"/>
</svg>
