<svg xmlns="http://www.w3.org/2000/svg" viewBox="0 0 320 200">
<defs><linearGradient id="sky" x1="0" y1="0" x2="0" y2="1"><stop offset="0" stop-color="#241243"/><stop offset="0.65" stop-color="#150a2c"/><stop offset="1" stop-color="#0a0518"/></linearGradient>
<radialGradient id="moon"><stop offset="0" stop-color="#c9b3ef"/><stop offset="0.55" stop-color="#7c58b8"/><stop offset="1" stop-color="#3a2470" stop-opacity="0"/></radialGradient></defs>
<rect width="320" height="200" fill="url(#sky)"/>
<circle cx="83" cy="80" r="61" fill="url(#moon)" opacity="0.85"/>
<circle cx="83" cy="80" r="32" fill="#171034" stroke="#9d7fd6" stroke-width="1.2"/>
<path d="M-10 153.23356568813324 C 70.64217209815979 89.6937483549118, 190.0137233734131 186.81516587734222, 330 116.10688865184784" stroke="#8a63c9" stroke-width="15.317387104034424" fill="none" opacity="0.11"/><path d="M-10 78.24954986572266 C 78.03202271461487 34.03764843940735, 208.33568572998047 122.74044692516327, 330 49.785828590393066" stroke="#8a63c9" stroke-width="11.6023588180542" fill="none" opacity="0.18"/><path d="M-10 76.04805052280426 C 112.07261323928833 23.280705213546753, 201.83566689491272 108.1578779220581, 330 16.835046410560608" stroke="#8a63c9" stroke-width="15.348790526390076" fill="none" opacity="0.13"/><circle cx="297" cy="134" r="1.4" fill="#d9c8f5" opacity="0.47"/><circle cx="63" cy="138" r="1.3" fill="#d9c8f5" opacity="0.89"/><circle cx="97" cy="64" r="1.5" fill="#d9c8f5" opacity="0.37"/><circle cx="130" cy="137" r="0.8" fill="#d9c8f5" opacity="0.39"/><circle cx="214" cy="80" r="1.8" fill="#d9c8f5" opacity="0.68"/><circle cx="216" cy="108" r="1.0" fill="#d9c8f5" opacity="0.57"/><circle cx="218" cy="80" r="0.9" fill="#d9c8f5" opacity="0.76"/><circle cx="231" cy="37" r="1.0" fill="#d9c8f5" opacity="0.40"/><circle cx="297" cy="71" r="0.7" fill="#d9c8f5" opacity="0.90"/><circle cx="99" cy="138" r="0.8" fill="#d9c8f5" opacity="0.40"/><circle cx="290" cy="136" r="1.6" fill="#d9c8f5" opacity="0.52"/><circle cx="126" cy="39" r="1.7" fill="#d9c8f5" opacity="0.57"/><circle cx="283" cy="113" r="0.5" fill="#d9c8f5" opacity="0.55"/><circle cx="147" cy="71" r="1.7" fill="#d9c8f5" opacity="0.77"/><circle cx="287" cy="105" r="1.3" fill="#d9c8f5" opacity="0.31"/><circle cx="318" cy="8" r="1.3" fill="#d9c8f5" opacity="0.82"/><g transform="translate(160,128)"><circle r="30" fill="none" stroke="#7b53c0" stroke-width="5"/><circle r="30" fill="none" stroke="#0d0722" stroke-width="1.5"/><path d="M0 -13 L 11 4 L 0 15 L -11 4 Z" fill="#b79ae8" stroke="#0d0722" stroke-width="1.4"/></g>
<rect width="320" height="200" fill="none" stroke="#000" stroke-opacity="0.35" stroke-width="4"/>
</svg>
