<svg xmlns="http://www.w3.org/2000/svg" viewBox="0 0 320 200">
<defs><linearGradient id="sky" x1="0" y1="0" x2="0" y2="1"><stop offset="0" stop-color="#241243"/><stop offset="0.65" stop-color="#150a2c"/><stop offset="1" stop-color="#0a0518"/></linearGradient>
<radialGradient id="moon"><stop offset="0" stop-color="#c9b3ef"/><stop offset="0.55" stop-color="#7c58b8"/><stop offset="1" stop-color="#3a2470" stop-opacity="0"/></radialGradient></defs>
<rect width="320" height="200" fill="url(#sky)"/>
<circle cx="98" cy="55" r="87" fill="url(#moon)" opacity="0.85"/>
<circle cx="98" cy="55" r="46" fill="#171034" stroke="#9d7fd6" stroke-width="1.2"/>
<path d="M-10 89.41930711269379 C 91.72159910202026 34.45400595664978, 188.36617827415466 136.46465420722961, 330 30.550464987754822" stroke="#8a63c9" stroke-width="10.747768998146057" fill="none" opacity="0.22"/><path d="M-10 165.24303495883942 C 102.37436413764954 98.61603081226349, 181.2227976322174 218.17022323608398, 330 108.90482485294342" stroke="#8a63c9" stroke-width="11.010639667510986" fill="none" opacity="0.19"/><path d="M-10 148.06163907051086 C 90.93153119087219 83.04109215736389, 208.49409341812134 182.32975602149963, 330 94.28379893302917" stroke="#8a63c9" stroke-width="8.563616037368774" fill="none" opacity="0.14"/><circle cx="267" cy="42" r="1.5" fill="#d9c8f5" opacity="0.90"/><circle cx="164" cy="156" r="1.8" fill="#d9c8f5" opacity="0.78"/><circle cx="125" cy="0" r="0.7" fill="#d9c8f5" opacity="0.78"/><circle cx="165" cy="128" r="1.5" fill="#d9c8f5" opacity="0.52"/><circle cx="203" cy="99" r="1.3" fill="#d9c8f5" opacity="0.60"/><circle cx="26" cy="149" r="0.6" fill="#d9c8f5" opacity="0.75"/><circle cx="21" cy="57" r="1.2" fill="#d9c8f5" opacity="0.46"/><circle cx="135" cy="3" r="1.3" fill="#d9c8f5" opacity="0.56"/><circle cx="82" cy="149" r="1.1" fill="#d9c8f5" opacity="0.42"/><circle cx="287" cy="11" r="1.8" fill="#d9c8f5" opacity="0.81"/><circle cx="3" cy="153" r="1.8" fill="#d9c8f5" opacity="0.55"/><circle cx="201" cy="5" r="1.1" fill="#d9c8f5" opacity="0.85"/><circle cx="79" cy="33" r="1.5" fill="#d9c8f5" opacity="0.59"/><circle cx="203" cy="113" r="1.6" fill="#d9c8f5" opacity="0.41"/><circle cx="112" cy="58" r="1.5" fill="#d9c8f5" opacity="0.72"/><circle cx="283" cy="61" r="1.3" fill="#d9c8f5" opacity="0.41"/><g transform="translate(160,128)"><path d="M-26 -18 A 34 34 0 1 0 26 -18 A 27 27 0 1 1 -26 -18 Z" fill="#0d0722" stroke="#7b53c0" stroke-width="2"/><path d="M-34 26 L 34 -10 M -20 36 L 30 8 M -6 44 L 26 26" stroke="#b79ae8" stroke-width="2.4" opacity="0.85"/></g>
<rect width="320" height="200" fill="none" stroke="#000" stroke-opacity="0.35" stroke-width="4"/>
</svg>
