<svg xmlns="http://www.w3.org/2000/svg" viewBox="0 0 320 200">
<defs><linearGradient id="sky" x1="0" y1="0" x2="0" y2="1"><stop offset="0" stop-color="#241243"/><stop offset="0.65" stop-color="#150a2c"/><stop offset="1" stop-color="#0a0518"/></linearGradient>
<radialGradient id="moon"><stop offset="0" stop-color="#c9b3ef"/><stop offset="0.55" stop-color="#7c58b8"/><stop offset="1" stop-color="#3a2470" stop-opacity="0"/></radialGradient></defs>
<rect width="320" height="200" fill="url(#sky)"/>
<circle cx="213" cy="85" r="71" fill="url(#moon)" opacity="0.85"/>
<circle cx="213" cy="85" r="37" fill="#171034" stroke="#9d7fd6" stroke-width="1.2"/>
<path d="M-10 70.41816473007202 C 78.71712684631348 16.71847641468048, 200.19608616828918 108.31315040588379, 330 29.438557624816895" stroke="#8a63c9" stroke-width="21.72326970100403" fill="none" opacity="0.17"/><path d="M-10 78.78233194351196 C 84.19876098632812 19.298243522644043, 191.17729425430298 127.68232822418213, 330 58.36605787277222" stroke="#8a63c9" stroke-width="9.59034013748169" fill="none" opacity="0.20"/><path d="M-10 169.66476559638977 C 91.84238791465759 111.95193469524384, 220.88369607925415 222.633438706398, 330 125.01394152641296" stroke="#8a63c9" stroke-width="18.167615056037903" fill="none" opacity="0.18"/><circle cx="250" cy="111" r="1.4" fill="#d9c8f5" opacity="0.73"/><circle cx="205" cy="51" r="1.6" fill="#d9c8f5" opacity="0.84"/><circle cx="188" cy="119" r="1.1" fill="#d9c8f5" opacity="0.34"/><circle cx="165" cy="43" r="0.8" fill="#d9c8f5" opacity="0.62"/><circle cx="83" cy="123" r="1.3" fill="#d9c8f5" opacity="0.88"/><circle cx="86" cy="166" r="1.3" fill="#d9c8f5" opacity="0.79"/><circle cx="225" cy="129" r="0.6" fill="#d9c8f5" opacity="0.73"/><circle cx="289" cy="3" r="0.7" fill="#d9c8f5" opacity="0.87"/><circle cx="65" cy="133" r="1.0" fill="#d9c8f5" opacity="0.66"/><circle cx="282" cy="169" r="1.6" fill="#d9c8f5" opacity="0.77"/><circle cx="30" cy="124" r="1.3" fill="#d9c8f5" opacity="0.37"/><circle cx="0" cy="57" r="0.6" fill="#d9c8f5" opacity="0.82"/><circle cx="95" cy="4" r="0.9" fill="#d9c8f5" opacity="0.81"/><circle cx="158" cy="33" r="1.1" fill="#d9c8f5" opacity="0.76"/><circle cx="245" cy="41" r="1.8" fill="#d9c8f5" opacity="0.36"/><circle cx="245" cy="32" r="0.6" fill="#d9c8f5" opacity="0.38"/><g transform="translate(160,128)"><path d="M-26 -18 A 34 34 0 1 0 26 -18 A 27 27 0 1 1 -26 -18 Z" fill="#0d0722" stroke="#7b53c0" stroke-width="2"/><path d="M-34 26 L 34 -10 M -20 36 L 30 8 M -6 44 L 26 26" stroke="#b79ae8" stroke-width="2.4" opacity="0.85"/></g>
<rect width="320" height="200" fill="none" stroke="#000" stroke-opacity="0.35" stroke-width="4"/>
</svg>
