<svg xmlns="http://www.w3.org/2000/svg" viewBox="0 0 320 200">
<defs><linearGradient id="sky" x1="0" y1="0" x2="0" y2="1"><stop offset="0" stop-color="#241243"/><stop offset="0.65" stop-color="#150a2c"/><stop offset="1" stop-color="#0a0518"/></linearGradient>
<radialGradient id="moon"><stop offset="0" stop-color="#c9b3ef"/><stop offset="0.55" stop-color="#7c58b8"/><stop offset="1" stop-color="#3a2470" stop-opacity="0"/></radialGradient></defs>
<rect width="320" height="200" fill="url(#sky)"/>
<circle cx="126" cy="78" r="75" fill="url(#moon)" opacity="0.85"/>
<circle cx="126" cy="78" r="39" fill="#171034" stroke="#9d7fd6" stroke-width="1.2"/>
<path d="M-10 166.05923533439636 C 81.09431505203247 114.93796169757843, 218.0309522151947 221.91294074058533, 330 134.6387541294098" stroke="#8a63c9" stroke-width="16.526485204696655" fill="none" opacity="0.15"/><path d="M-10 165.67560076713562 C 60.82086682319641 118.88689041137695, 210.20238518714905 199.397514462471, 330 108.67687344551086" stroke="#8a63c9" stroke-width="17.834715247154236" fill="none" opacity="0.15"/><path d="M-10 61.4406818151474 C 85.60989260673523 3.514077067375183, 239.06235694885254 111.75492823123932, 330 13.60726535320282" stroke="#8a63c9" stroke-width="17.697038531303406" fill="none" opacity="0.16"/><circle cx="302" cy="71" r="1.7" fill="#d9c8f5" opacity="0.62"/><circle cx="61" cy="66" r="1.1" fill="#d9c8f5" opacity="0.47"/><circle cx="88" cy="62" r="1.3" fill="#d9c8f5" opacity="0.60"/><circle cx="189" cy="196" r="1.2" fill="#d9c8f5" opacity="0.66"/><circle cx="202" cy="119" r="0.6" fill="#d9c8f5" opacity="0.67"/><circle cx="73" cy="55" r="0.7" fill="#d9c8f5" opacity="0.75"/><circle cx="254" cy="166" r="0.8" fill="#d9c8f5" opacity="0.64"/><circle cx="250" cy="101" r="0.7" fill="#d9c8f5" opacity="0.77"/><circle cx="30" cy="86" r="1.2" fill="#d9c8f5" opacity="0.70"/><circle cx="51" cy="25" r="1.5" fill="#d9c8f5" opacity="0.52"/><circle cx="148" cy="98" r="1.7" fill="#d9c8f5" opacity="0.48"/><circle cx="148" cy="80" r="1.6" fill="#d9c8f5" opacity="0.46"/><circle cx="34" cy="158" r="0.6" fill="#d9c8f5" opacity="0.81"/><circle cx="277" cy="106" r="1.6" fill="#d9c8f5" opacity="0.87"/><circle cx="33" cy="155" r="1.6" fill="#d9c8f5" opacity="0.52"/><circle cx="277" cy="200" r="1.7" fill="#d9c8f5" opacity="0.85"/><g transform="translate(160,132)"><path d="M0 -34 C 20 -22, 26 6, 22 46 L -22 46 C -26 6, -20 -22, 0 -34 Z" fill="#0d0722" stroke="#7b53c0" stroke-width="2"/><circle cx="0" cy="-24" r="11" fill="#0d0722" stroke="#7b53c0" stroke-width="2"/><path d="M-9 8 L 9 8" stroke="#b79ae8" stroke-width="2" opacity="0.8"/></g>
<rect width="320" height="200" fill="none" stroke="#000" stroke-opacity="0.35" stroke-width="4"/>
</svg>
