<svg xmlns="http://www.w3.org/2000/svg" viewBox="0 0 320 200">
<defs><linearGradient id="sky" x1="0" y1="0" x2="0" y2="1"><stop offset="0" stop-color="#241243"/><stop offset="0.65" stop-color="#150a2c"/><stop offset="1" stop-color="#0a0518"/></linearGradient>
<radialGradient id="moon"><stop offset="0" stop-color="#c9b3ef"/><stop offset="0.55" stop-color="#7c58b8"/><stop offset="1" stop-color="#3a2470" stop-opacity="0"/></radialGradient></defs>
<rect width="320" height="200" fill="url(#sky)"/>
<circle cx="92" cy="81" r="88" fill="url(#moon)" opacity="0.85"/>
<circle cx="92" cy="81" r="46" fill="#171034" stroke="#9d7fd6" stroke-width="1.2"/>
<path d="M-10 133.16052556037903 C 83.03600549697876 76.55687212944031, 183.51980566978455 182.17665076255798, 330 82.65702605247498" stroke="#8a63c9" stroke-width="13.842215657234192" fill="none" opacity="0.24"/><path d="M-10 160.03365099430084 C 101.9281554222107 95.69872677326202, 234.55886721611023 207.41971909999847, 330 102.8272396326065" stroke="#8a63c9" stroke-width="12.448827624320984" fill="none" opacity="0.15"/><path d="M-10 167.3499631881714 C 103.92990946769714 102.74082779884338, 229.81247305870056 209.5964878797531, 330 144.3699312210083" stroke="#8a63c9" stroke-width="15.596954584121704" fill="none" opacity="0.16"/><circle cx="249" cy="119" r="1.6" fill="#d9c8f5" opacity="0.59"/><circle cx="40" cy="74" r="0.8" fill="#d9c8f5" opacity="0.47"/><circle cx="186" cy="23" r="1.7" fill="#d9c8f5" opacity="0.61"/><circle cx="244" cy="126" r="0.6" fill="#d9c8f5" opacity="0.51"/><circle cx="251" cy="67" r="1.6" fill="#d9c8f5" opacity="0.89"/><circle cx="229" cy="128" r="0.9" fill="#d9c8f5" opacity="0.39"/><circle cx="28" cy="45" r="1.2" fill="#d9c8f5" opacity="0.39"/><circle cx="68" cy="191" r="0.5" fill="#d9c8f5" opacity="0.50"/><circle cx="95" cy="15" r="0.5" fill="#d9c8f5" opacity="0.54"/><circle cx="159" cy="27" r="1.4" fill="#d9c8f5" opacity="0.35"/><circle cx="100" cy="91" r="1.5" fill="#d9c8f5" opacity="0.36"/><circle cx="40" cy="75" r="0.8" fill="#d9c8f5" opacity="0.72"/><circle cx="178" cy="96" r="1.3" fill="#d9c8f5" opacity="0.71"/><circle cx="15" cy="69" r="1.0" fill="#d9c8f5" opacity="0.55"/><circle cx="275" cy="90" r="1.7" fill="#d9c8f5" opacity="0.70"/><circle cx="198" cy="185" r="1.5" fill="#d9c8f5" opacity="0.32"/><g transform="translate(160,132)"><path d="M0 -34 C 20 -22, 26 6, 22 46 L -22 46 C -26 6, -20 -22, 0 -34 Z" fill="#0d0722" stroke="#7b53c0" stroke-width="2"/><circle cx="0" cy="-24" r="11" fill="#0d0722" stroke="#7b53c0" stroke-width="2"/><path d="M-9 8 L 9 8" stroke="#b79ae8" stroke-width="2" opacity="0.8"/></g>
<rect width="320" height="200" fill="none" stroke="#000" stroke-opacity="0.35" stroke-width="4"/>
</svg>
