<svg xmlns="http://www.w3.org/2000/svg" viewBox="0 0 320 200">
<defs><linearGradient id="sky" x1="0" y1="0" x2="0" y2="1"><stop offset="0" stop-color="#241243"/><stop offset="0.65" stop-color="#150a2c"/><stop offset="1" stop-color="#0a0518"/></linearGradient>
<radialGradient id="moon"><stop offset="0" stop-color="#c9b3ef"/><stop offset="0.55" stop-color="#7c58b8"/><stop offset="1" stop-color="#3a2470" stop-opacity="0"/></radialGradient></defs>
<rect width="320" height="200" fill="url(#sky)"/>
<circle cx="147" cy="72" r="87" fill="url(#moon)" opacity="0.85"/>
<circle cx="147" cy="72" r="46" fill="#171034" stroke="#9d7fd6" stroke-width="1.2"/>
<path d="M-10 133.24522256851196 C 65.0788164138794 81.02878153324127, 200.454261302948 167.97337770462036, 330 75.20130157470703" stroke="#8a63c9" stroke-width="10.635213017463684" fill="none" opacity="0.18"/><path d="M-10 108.51482391357422 C 94.6052348613739 61.643810868263245, 235.2248203754425 147.90070116519928, 330 60.19415855407715" stroke="#8a63c9" stroke-width="11.800434947013855" fill="none" opacity="0.20"/><path d="M-10 113.1172388792038 C 78.991219997406 67.08767414093018, 205.16283988952637 159.0243101119995, 330 68.56495559215546" stroke="#8a63c9" stroke-width="20.300808906555176" fill="none" opacity="0.23"/><circle cx="117" cy="6" r="1.5" fill="#d9c8f5" opacity="0.82"/><circle cx="61" cy="145" r="1.3" fill="#d9c8f5" opacity="0.49"/><circle cx="64" cy="199" r="0.9" fill="#d9c8f5" opacity="0.77"/><circle cx="19" cy="49" r="0.7" fill="#d9c8f5" opacity="0.78"/><circle cx="248" cy="138" r="1.2" fill="#d9c8f5" opacity="0.71"/><circle cx="313" cy="10" r="0.7" fill="#d9c8f5" opacity="0.37"/><circle cx="228" cy="162" r="1.6" fill="#d9c8f5" opacity="0.78"/><circle cx="127" cy="62" r="1.3" fill="#d9c8f5" opacity="0.35"/><circle cx="66" cy="185" r="0.6" fill="#d9c8f5" opacity="0.49"/><circle cx="246" cy="152" r="1.3" fill="#d9c8f5" opacity="0.34"/><circle cx="58" cy="13" r="1.5" fill="#d9c8f5" opacity="0.57"/><circle cx="16" cy="13" r="0.6" fill="#d9c8f5" opacity="0.70"/><circle cx="292" cy="31" r="0.5" fill="#d9c8f5" opacity="0.47"/><circle cx="145" cy="25" r="1.8" fill="#d9c8f5" opacity="0.68"/><circle cx="303" cy="39" r="1.0" fill="#d9c8f5" opacity="0.40"/><circle cx="108" cy="3" r="1.5" fill="#d9c8f5" opacity="0.56"/><g transform="translate(160,132)"><path d="M0 -34 C 20 -22, 26 6, 22 46 L -22 46 C -26 6, -20 -22, 0 -34 Z" fill="#0d0722" stroke="#7b53c0" stroke-width="2"/><circle cx="0" cy="-24" r="11" fill="#0d0722" stroke="#7b53c0" stroke-width="2"/><path d="M-9 8 L 9 8" stroke="#b79ae8" stroke-width="2" opacity="0.8"/></g>
<rect width="320" height="200" fill="none" stroke="#000" stroke-opacity="0.35" stroke-width="4"/>
</svg>
