<svg xmlns="http://www.w3.org/2000/svg" viewBox="0 0 320 200">
<defs><linearGradient id="sky" x1="0" y1="0" x2="0" y2="1"><stop offset="0" stop-color="#241243"/><stop offset="0.65" stop-color="#150a2c"/><stop offset="1" stop-color="#0a0518"/></linearGradient>
<radialGradient id="moon"><stop offset="0" stop-color="#c9b3ef"/><stop offset="0.55" stop-color="#7c58b8"/><stop offset="1" stop-color="#3a2470" stop-opacity="0"/></radialGradient></defs>
<rect width="320" height="200" fill="url(#sky)"/>
<circle cx="102" cy="84" r="69" fill="url(#moon)" opacity="0.85"/>
<circle cx="102" cy="84" r="36" fill="#171034" stroke="#9d7fd6" stroke-width="1.2"/>
<path d="M-10 66.17397785186768 C 105.79605460166931 20.78094780445099, 196.75084233283997 101.84941411018372, 330 44.951865673065186" stroke="#8a63c9" stroke-width="16.53826117515564" fill="none" opacity="0.12"/><path d="M-10 116.93082690238953 C 116.149742603302 66.49730384349823, 217.91076064109802 172.75119245052338, 330 60.30393958091736" stroke="#8a63c9" stroke-width="17.007848858833313" fill="none" opacity="0.12"/><path d="M-10 80.13307809829712 C 112.27319240570068 17.080042362213135, 207.65573143959045 127.40414202213287, 330 47.64249324798584" stroke="#8a63c9" stroke-width="21.88204336166382" fill="none" opacity="0.15"/><circle cx="265" cy="190" r="0.8" fill="#d9c8f5" opacity="0.85"/><circle cx="85" cy="57" r="1.2" fill="#d9c8f5" opacity="0.31"/><circle cx="305" cy="197" r="1.1" fill="#d9c8f5" opacity="0.66"/><circle cx="148" cy="194" r="1.2" fill="#d9c8f5" opacity="0.59"/><circle cx="231" cy="107" r="1.4" fill="#d9c8f5" opacity="0.53"/><circle cx="6" cy="118" r="1.5" fill="#d9c8f5" opacity="0.55"/><circle cx="214" cy="136" r="0.6" fill="#d9c8f5" opacity="0.46"/><circle cx="130" cy="9" r="1.2" fill="#d9c8f5" opacity="0.51"/><circle cx="4" cy="24" r="1.4" fill="#d9c8f5" opacity="0.72"/><circle cx="233" cy="81" r="0.8" fill="#d9c8f5" opacity="0.81"/><circle cx="227" cy="108" r="1.3" fill="#d9c8f5" opacity="0.31"/><circle cx="319" cy="172" r="1.1" fill="#d9c8f5" opacity="0.50"/><circle cx="135" cy="66" r="0.8" fill="#d9c8f5" opacity="0.55"/><circle cx="118" cy="173" r="1.2" fill="#d9c8f5" opacity="0.79"/><circle cx="66" cy="92" r="0.6" fill="#d9c8f5" opacity="0.63"/><circle cx="305" cy="197" r="1.0" fill="#d9c8f5" opacity="0.51"/><g transform="translate(160,132)"><path d="M0 -34 C 20 -22, 26 6, 22 46 L -22 46 C -26 6, -20 -22, 0 -34 Z" fill="#0d0722" stroke="#7b53c0" stroke-width="2"/><circle cx="0" cy="-24" r="11" fill="#0d0722" stroke="#7b53c0" stroke-width="2"/><path d="M-9 8 L 9 8" stroke="#b79ae8" stroke-width="2" opacity="0.8"/></g>
<rect width="320" height="200" fill="none" stroke="#000" stroke-opacity="0.35" stroke-width="4"/>
</svg>
