<svg xmlns="http://www.w3.org/2000/svg" viewBox="0 0 320 200">
<defs><linearGradient id="sky" x1="0" y1="0" x2="0" y2="1"><stop offset="0" stop-color="#241243"/><stop offset="0.65" stop-color="#150a2c"/><stop offset="1" stop-color="#0a0518"/></linearGradient>
<radialGradient id="moon"><stop offset="0" stop-color="#c9b3ef"/><stop offset="0.55" stop-color="#7c58b8"/><stop offset="1" stop-color="#3a2470" stop-opacity="0"/></radialGradient></defs>
<rect width="320" height="200" fill="url(#sky)"/>
<circle cx="143" cy="60" r="70" fill="url(#moon)" opacity="0.85"/>
<circle cx="143" cy="60" r="37" fill="#171034" stroke="#9d7fd6" stroke-width="1.2"/>
<path d="M-10 127.09709703922272 C 112.78637409210205 72.40052998065948, 200.04887580871582 166.48344099521637, 330 85.8409196138382" stroke="#8a63c9" stroke-width="20.317831993103027" fill="none" opacity="0.14"/><path d="M-10 167.1774810552597 C 72.02578067779541 104.67880249023438, 219.33568954467773 210.9033852815628, 330 117.25993573665619" stroke="#8a63c9" stroke-width="17.999764919281006" fill="none" opacity="0.23"/><path d="M-10 78.73858034610748 C 89.4119381904602 36.83731973171234, 207.3948097229004 128.8587188720703, 330 29.935815930366516" stroke="#8a63c9" stroke-width="11.354551911354065" fill="none" opacity="0.16"/><circle cx="125" cy="58" r="1.1" fill="#d9c8f5" opacity="0.46"/><circle cx="279" cy="144" r="1.1" fill="#d9c8f5" opacity="0.75"/><circle cx="278" cy="83" r="1.6" fill="#d9c8f5" opacity="0.51"/><circle cx="58" cy="40" r="0.9" fill="#d9c8f5" opacity="0.59"/><circle cx="160" cy="146" r="0.6" fill="#d9c8f5" opacity="0.80"/><circle cx="55" cy="3" r="1.5" fill="#d9c8f5" opacity="0.79"/><circle cx="227" cy="128" r="1.3" fill="#d9c8f5" opacity="0.58"/><circle cx="66" cy="5" r="1.4" fill="#d9c8f5" opacity="0.79"/><circle cx="214" cy="53" r="1.3" fill="#d9c8f5" opacity="0.49"/><circle cx="99" cy="62" r="0.9" fill="#d9c8f5" opacity="0.54"/><circle cx="202" cy="122" r="1.5" fill="#d9c8f5" opacity="0.82"/><circle cx="21" cy="72" r="0.9" fill="#d9c8f5" opacity="0.45"/><circle cx="237" cy="197" r="1.7" fill="#d9c8f5" opacity="0.38"/><circle cx="169" cy="157" r="1.5" fill="#d9c8f5" opacity="0.33"/><circle cx="299" cy="192" r="1.2" fill="#d9c8f5" opacity="0.62"/><circle cx="255" cy="112" r="1.6" fill="#d9c8f5" opacity="0.52"/><g transform="translate(160,128)"><path d="M-26 -18 A 34 34 0 1 0 26 -18 A 27 27 0 1 1 -26 -18 Z" fill="#0d0722" stroke="#7b53c0" stroke-width="2"/><path d="M-34 26 L 34 -10 M -20 36 L 30 8 M -6 44 L 26 26" stroke="#b79ae8" stroke-width="2.4" opacity="0.85"/></g>
<rect width="320" height="200" fill="none" stroke="#000" stroke-opacity="0.35" stroke-width="4"/>
</svg>
