<svg xmlns="http://www.w3.org/2000/svg" viewBox="0 0 320 200">
<defs><linearGradient id="sky" x1="0" y1="0" x2="0" y2="1"><stop offset="0" stop-color="#241243"/><stop offset="0.65" stop-color="#150a2c"/><stop offset="1" stop-color="#0a0518"/></linearGradient>
<radialGradient id="moon"><stop offset="0" stop-color="#c9b3ef"/><stop offset="0.55" stop-color="#7c58b8"/><stop offset="1" stop-color="#3a2470" stop-opacity="0"/></radialGradient></defs>
<rect width="320" height="200" fill="url(#sky)"/>
<circle cx="226" cy="66" r="83" fill="url(#moon)" opacity="0.85"/>
<circle cx="226" cy="66" r="44" fill="#171034" stroke="#9d7fd6" stroke-width="1.2"/>
<path d="M-10 105.35132706165314 C 83.39144110679626 41.93090558052063, 210.0973892211914 160.24814546108246, 330 46.24570667743683" stroke="#8a63c9" stroke-width="18.70806884765625" fill="none" opacity="0.24"/><path d="M-10 108.57440292835236 C 62.061946392059326 53.338831663131714, 217.65544295310974 143.502037525177, 330 54.61755096912384" stroke="#8a63c9" stroke-width="16.614641427993774" fill="none" opacity="0.22"/><path d="M-10 130.40211617946625 C 112.69513249397278 78.8719254732132, 219.96476411819458 166.23031675815582, 330 80.46253621578217" stroke="#8a63c9" stroke-width="10.56932532787323" fill="none" opacity="0.23"/><circle cx="114" cy="146" r="1.5" fill="#d9c8f5" opacity="0.43"/><circle cx="243" cy="42" r="1.6" fill="#d9c8f5" opacity="0.54"/><circle cx="133" cy="165" r="1.6" fill="#d9c8f5" opacity="0.30"/><circle cx="287" cy="2" r="1.3" fill="#d9c8f5" opacity="0.56"/><circle cx="60" cy="69" r="1.1" fill="#d9c8f5" opacity="0.46"/><circle cx="42" cy="16" r="1.3" fill="#d9c8f5" opacity="0.59"/><circle cx="197" cy="196" r="1.7" fill="#d9c8f5" opacity="0.80"/><circle cx="277" cy="0" r="0.7" fill="#d9c8f5" opacity="0.40"/><circle cx="11" cy="110" r="1.6" fill="#d9c8f5" opacity="0.72"/><circle cx="102" cy="54" r="0.6" fill="#d9c8f5" opacity="0.42"/><circle cx="307" cy="99" r="0.6" fill="#d9c8f5" opacity="0.46"/><circle cx="73" cy="21" r="1.8" fill="#d9c8f5" opacity="0.56"/><circle cx="313" cy="72" r="1.1" fill="#d9c8f5" opacity="0.89"/><circle cx="82" cy="15" r="1.7" fill="#d9c8f5" opacity="0.35"/><circle cx="40" cy="146" r="1.4" fill="#d9c8f5" opacity="0.33"/><circle cx="81" cy="196" r="1.8" fill="#d9c8f5" opacity="0.66"/><g transform="translate(160,128)"><path d="M-26 -18 A 34 34 0 1 0 26 -18 A 27 27 0 1 1 -26 -18 Z" fill="#0d0722" stroke="#7b53c0" stroke-width="2"/><path d="M-34 26 L 34 -10 M -20 36 L 30 8 M -6 44 L 26 26" stroke="#b79ae8" stroke-width="2.4" opacity="0.85"/></g>
<rect width="320" height="200" fill="none" stroke="#000" stroke-opacity="0.35" stroke-width="4"/>
</svg>
