<svg xmlns="http://www.w3.org/2000/svg" viewBox="0 0 320 200">
<defs><linearGradient id="sky" x1="0" y1="0" x2="0" y2="1"><stop offset="0" stop-color="#241243"/><stop offset="0.65" stop-color="#150a2c"/><stop offset="1" stop-color="#0a0518"/></linearGradient>
<radialGradient id="moon"><stop offset="0" stop-color="#c9b3ef"/><stop offset="0.55" stop-color="#7c58b8"/><stop offset="1" stop-color="#3a2470" stop-opacity="0"/></radialGradient></defs>
<rect width="320" height="200" fill="url(#sky)"/>
<circle cx="258" cy="82" r="82" fill="url(#moon)" opacity="0.85"/>
<circle cx="258" cy="82" r="43" fill="#171034" stroke="#9d7fd6" stroke-width="1.2"/>
<path d="M-10 140.64926087856293 C 67.92022705078125 95.06623208522797, 193.27757120132446 180.12824475765228, 330 105.36526620388031" stroke="#8a63c9" stroke-width="13.059229612350464" fill="none" opacity="0.10"/><path d="M-10 123.97408664226532 C 72.88561820983887 61.36529088020325, 209.75937366485596 160.5906367301941, 330 92.07581698894501" stroke="#8a63c9" stroke-width="13.758104920387268" fill="none" opacity="0.21"/><path d="M-10 100.10276138782501 C 117.98515319824219 55.33490598201752, 211.2023627758026 133.84378671646118, 330 48.41872751712799" stroke="#8a63c9" stroke-width="13.48153567314148" fill="none" opacity="0.23"/><circle cx="309" cy="80" r="1.0" fill="#d9c8f5" opacity="0.57"/><circle cx="131" cy="106" r="0.7" fill="#d9c8f5" opacity="0.77"/><circle cx="80" cy="170" r="0.7" fill="#d9c8f5" opacity="0.86"/><circle cx="264" cy="77" r="1.3" fill="#d9c8f5" opacity="0.41"/><circle cx="148" cy="35" r="1.0" fill="#d9c8f5" opacity="0.68"/><circle cx="181" cy="74" r="1.0" fill="#d9c8f5" opacity="0.56"/><circle cx="9" cy="79" r="1.2" fill="#d9c8f5" opacity="0.76"/><circle cx="272" cy="138" r="1.0" fill="#d9c8f5" opacity="0.83"/><circle cx="225" cy="4" r="1.0" fill="#d9c8f5" opacity="0.38"/><circle cx="304" cy="50" r="0.8" fill="#d9c8f5" opacity="0.81"/><circle cx="42" cy="113" r="1.2" fill="#d9c8f5" opacity="0.69"/><circle cx="97" cy="145" r="0.6" fill="#d9c8f5" opacity="0.44"/><circle cx="212" cy="160" r="1.4" fill="#d9c8f5" opacity="0.84"/><circle cx="20" cy="99" r="0.6" fill="#d9c8f5" opacity="0.54"/><circle cx="231" cy="124" r="1.0" fill="#d9c8f5" opacity="0.69"/><circle cx="225" cy="12" r="0.7" fill="#d9c8f5" opacity="0.85"/><g transform="translate(160,128)"><path d="M-26 -18 A 34 34 0 1 0 26 -18 A 27 27 0 1 1 -26 -18 Z" fill="#0d0722" stroke="#7b53c0" stroke-width="2"/><path d="M-34 26 L 34 -10 M -20 36 L 30 8 M -6 44 L 26 26" stroke="#b79ae8" stroke-width="2.4" opacity="0.85"/></g>
<rect width="320" height="200" fill="none" stroke="#000" stroke-opacity="0.35" stroke-width="4"/>
</svg>
