<svg xmlns="http://www.w3.org/2000/svg" viewBox="0 0 320 200">
<defs><linearGradient id="sky" x1="0" y1="0" x2="0" y2="1"><stop offset="0" stop-color="#241243"/><stop offset="0.65" stop-color="#150a2c"/><stop offset="1" stop-color="#0a0518"/></linearGradient>
<radialGradient id="moon"><stop offset="0" stop-color="#c9b3ef"/><stop offset="0.55" stop-color="#7c58b8"/><stop offset="1" stop-color="#3a2470" stop-opacity="0"/></radialGradient></defs>
<rect width="320" height="200" fill="url(#sky)"/>
<circle cx="83" cy="86" r="52" fill="url(#moon)" opacity="0.85"/>
<circle cx="83" cy="86" r="27" fill="#171034" stroke="#9d7fd6" stroke-width="1.2"/>
<path d="M-10 161.97202444076538 C 73.55140328407288 98.4274971485138, 239.50759649276733 197.36449301242828, 330 120.63765287399292" stroke="#8a63c9" stroke-width="17.320950984954834" fill="none" opacity="0.17"/><path d="M-10 61.21560990810394 C 95.89515209197998 15.771666169166565, 193.45242977142334 120.16252279281616, 330 40.18716514110565" stroke="#8a63c9" stroke-width="11.128117322921753" fill="none" opacity="0.19"/><path d="M-10 67.02977955341339 C 113.03879857063293 -1.3110077381134033, 210.47679662704468 112.31042802333832, 330 36.33745729923248" stroke="#8a63c9" stroke-width="13.838029146194458" fill="none" opacity="0.21"/><circle cx="31" cy="160" r="1.4" fill="#d9c8f5" opacity="0.42"/><circle cx="232" cy="13" r="0.9" fill="#d9c8f5" opacity="0.68"/><circle cx="112" cy="171" r="1.6" fill="#d9c8f5" opacity="0.40"/><circle cx="24" cy="102" r="0.7" fill="#d9c8f5" opacity="0.84"/><circle cx="125" cy="91" r="1.0" fill="#d9c8f5" opacity="0.70"/><circle cx="300" cy="182" r="1.1" fill="#d9c8f5" opacity="0.50"/><circle cx="183" cy="105" r="0.7" fill="#d9c8f5" opacity="0.84"/><circle cx="30" cy="108" r="0.8" fill="#d9c8f5" opacity="0.37"/><circle cx="266" cy="191" r="1.1" fill="#d9c8f5" opacity="0.52"/><circle cx="151" cy="0" r="1.6" fill="#d9c8f5" opacity="0.61"/><circle cx="315" cy="67" r="1.0" fill="#d9c8f5" opacity="0.40"/><circle cx="257" cy="76" r="1.4" fill="#d9c8f5" opacity="0.38"/><circle cx="136" cy="159" r="0.8" fill="#d9c8f5" opacity="0.50"/><circle cx="223" cy="70" r="0.5" fill="#d9c8f5" opacity="0.50"/><circle cx="319" cy="95" r="0.5" fill="#d9c8f5" opacity="0.46"/><circle cx="263" cy="22" r="1.7" fill="#d9c8f5" opacity="0.61"/><g transform="translate(160,132)"><path d="M0 -34 C 20 -22, 26 6, 22 46 L -22 46 C -26 6, -20 -22, 0 -34 Z" fill="#0d0722" stroke="#7b53c0" stroke-width="2"/><circle cx="0" cy="-24" r="11" fill="#0d0722" stroke="#7b53c0" stroke-width="2"/><path d="M-9 8 L 9 8" stroke="#b79ae8" stroke-width="2" opacity="0.8"/></g>
<rect width="320" height="200" fill="none" stroke="#000" stroke-opacity="0.35" stroke-width="4"/>
</svg>
