<svg xmlns="http://www.w3.org/2000/svg" viewBox="0 0 320 200">
<defs><linearGradient id="sky" x1="0" y1="0" x2="0" y2="1"><stop offset="0" stop-color="#241243"/><stop offset="0.65" stop-color="#150a2c"/><stop offset="1" stop-color="#0a0518"/></linearGradient>
<radialGradient id="moon"><stop offset="0" stop-color="#c9b3ef"/><stop offset="0.55" stop-color="#7c58b8"/><stop offset="1" stop-color="#3a2470" stop-opacity="0"/></radialGradient></defs>
<rect width="320" height="200" fill="url(#sky)"/>
<circle cx="214" cy="67" r="66" fill="url(#moon)" opacity="0.85"/>
<circle cx="214" cy="67" r="35" fill="#171034" stroke="#9d7fd6" stroke-width="1.2"/>
<path d="M-10 81.37364864349365 C 108.21283221244812 16.349854469299316, 220.05790829658508 130.987851023674, 330 30.210859775543213" stroke="#8a63c9" stroke-width="19.022738099098206" fill="none" opacity="0.24"/><path d="M-10 153.68295550346375 C 96.19945406913757 90.97267389297485, 181.11616730690002 189.1413813829422, 330 125.72773814201355" stroke="#8a63c9" stroke-width="15.31259560585022" fill="none" opacity="0.22"/><path d="M-10 149.64471518993378 C 98.08455348014832 102.57523834705353, 206.94375157356262 196.69786036014557, 330 114.05188977718353" stroke="#8a63c9" stroke-width="15.546055555343628" fill="none" opacity="0.14"/><circle cx="52" cy="93" r="1.5" fill="#d9c8f5" opacity="0.71"/><circle cx="73" cy="69" r="1.4" fill="#d9c8f5" opacity="0.37"/><circle cx="247" cy="114" r="1.4" fill="#d9c8f5" opacity="0.82"/><circle cx="82" cy="200" r="0.6" fill="#d9c8f5" opacity="0.77"/><circle cx="284" cy="85" r="1.7" fill="#d9c8f5" opacity="0.57"/><circle cx="297" cy="46" r="1.4" fill="#d9c8f5" opacity="0.54"/><circle cx="273" cy="127" r="1.0" fill="#d9c8f5" opacity="0.71"/><circle cx="258" cy="70" r="1.6" fill="#d9c8f5" opacity="0.78"/><circle cx="251" cy="21" r="1.0" fill="#d9c8f5" opacity="0.55"/><circle cx="218" cy="57" r="1.2" fill="#d9c8f5" opacity="0.83"/><circle cx="115" cy="43" r="1.6" fill="#d9c8f5" opacity="0.83"/><circle cx="236" cy="130" r="1.1" fill="#d9c8f5" opacity="0.50"/><circle cx="285" cy="123" r="1.1" fill="#d9c8f5" opacity="0.73"/><circle cx="240" cy="196" r="1.6" fill="#d9c8f5" opacity="0.68"/><circle cx="45" cy="170" r="1.2" fill="#d9c8f5" opacity="0.89"/><circle cx="113" cy="95" r="1.8" fill="#d9c8f5" opacity="0.31"/><g transform="translate(160,128)"><path d="M-26 -18 A 34 34 0 1 0 26 -18 A 27 27 0 1 1 -26 -18 Z" fill="#0d0722" stroke="#7b53c0" stroke-width="2"/><path d="M-34 26 L 34 -10 M -20 36 L 30 8 M -6 44 L 26 26" stroke="#b79ae8" stroke-width="2.4" opacity="0.85"/></g>
<rect width="320" height="200" fill="none" stroke="#000" stroke-opacity="0.35" stroke-width="4"/>
</svg>
