<svg xmlns="http://www.w3.org/2000/svg" viewBox="0 0 320 200">
<defs><linearGradient id="sky" x1="0" y1="0" x2="0" y2="1"><stop offset="0" stop-color="#241243"/><stop offset="0.65" stop-color="#150a2c"/><stop offset="1" stop-color="#0a0518"/></linearGradient>
<radialGradient id="moon"><stop offset="0" stop-color="#c9b3ef"/><stop offset="0.55" stop-color="#7c58b8"/><stop offset="1" stop-color="#3a2470" stop-opacity="0"/></radialGradient></defs>
<rect width="320" height="200" fill="url(#sky)"/>
<circle cx="204" cy="69" r="81" fill="url(#moon)" opacity="0.85"/>
<circle cx="204" cy="69" r="43" fill="#171034" stroke="#9d7fd6" stroke-width="1.2"/>
<path d="M-10 132.67155408859253 C 113.35611462593079 90.32467663288116, 201.90481066703796 163.09346914291382, 330 106.18961811065674" stroke="#8a63c9" stroke-width="19.78773808479309" fill="none" opacity="0.14"/><path d="M-10 65.00070989131927 C 116.85318946838379 22.88541615009308, 204.3611776828766 100.38984179496765, 330 28.427221179008484" stroke="#8a63c9" stroke-width="16.57206618785858" fill="none" opacity="0.15"/><path d="M-10 71.21146976947784 C 112.02522039413452 1.557304859161377, 194.09408926963806 116.03220880031586, 330 40.04397928714752" stroke="#8a63c9" stroke-width="15.327810406684875" fill="none" opacity="0.14"/><circle cx="125" cy="57" r="1.3" fill="#d9c8f5" opacity="0.73"/><circle cx="219" cy="55" r="1.7" fill="#d9c8f5" opacity="0.76"/><circle cx="264" cy="4" r="1.5" fill="#d9c8f5" opacity="0.49"/><circle cx="215" cy="123" r="0.8" fill="#d9c8f5" opacity="0.52"/><circle cx="189" cy="137" r="0.6" fill="#d9c8f5" opacity="0.87"/><circle cx="100" cy="125" r="1.8" fill="#d9c8f5" opacity="0.44"/><circle cx="133" cy="74" r="0.6" fill="#d9c8f5" opacity="0.85"/><circle cx="85" cy="44" r="1.5" fill="#d9c8f5" opacity="0.41"/><circle cx="257" cy="170" r="0.9" fill="#d9c8f5" opacity="0.57"/><circle cx="239" cy="102" r="1.3" fill="#d9c8f5" opacity="0.49"/><circle cx="147" cy="80" r="1.4" fill="#d9c8f5" opacity="0.62"/><circle cx="185" cy="85" r="1.5" fill="#d9c8f5" opacity="0.81"/><circle cx="130" cy="178" r="1.0" fill="#d9c8f5" opacity="0.69"/><circle cx="26" cy="158" r="1.7" fill="#d9c8f5" opacity="0.49"/><circle cx="193" cy="82" r="1.1" fill="#d9c8f5" opacity="0.34"/><circle cx="87" cy="5" r="0.6" fill="#d9c8f5" opacity="0.86"/><g transform="translate(160,132)"><path d="M0 -34 C 20 -22, 26 6, 22 46 L -22 46 C -26 6, -20 -22, 0 -34 Z" fill="#0d0722" stroke="#7b53c0" stroke-width="2"/><circle cx="0" cy="-24" r="11" fill="#0d0722" stroke="#7b53c0" stroke-width="2"/><path d="M-9 8 L 9 8" stroke="#b79ae8" stroke-width="2" opacity="0.8"/></g>
<rect width="320" height="200" fill="none" stroke="#000" stroke-opacity="0.35" stroke-width="4"/>
</svg>
