<svg xmlns="http://www.w3.org/2000/svg" viewBox="0 0 320 200">
<defs><linearGradient id="sky" x1="0" y1="0" x2="0" y2="1"><stop offset="0" stop-color="#241243"/><stop offset="0.65" stop-color="#150a2c"/><stop offset="1" stop-color="#0a0518"/></linearGradient>
<radialGradient id="moon"><stop offset="0" stop-color="#c9b3ef"/><stop offset="0.55" stop-color="#7c58b8"/><stop offset="1" stop-color="#3a2470" stop-opacity="0"/></radialGradient></defs>
<rect width="320" height="200" fill="url(#sky)"/>
<circle cx="193" cy="48" r="70" fill="url(#moon)" opacity="0.85"/>
<circle cx="193" cy="48" r="37" fill="#171034" stroke="#9d7fd6" stroke-width="1.2"/>
<path d="M-10 152.69863307476044 C 113.53425621986389 85.33353328704834, 223.28903675079346 200.9836381673813, 330 110.52905023097992" stroke="#8a63c9" stroke-width="19.436744570732117" fill="none" opacity="0.16"/><path d="M-10 99.65765297412872 C 64.194256067276 57.361358404159546, 225.87005138397217 158.88613879680634, 330 47.21264898777008" stroke="#8a63c9" stroke-width="20.407501935958862" fill="none" opacity="0.21"/><path d="M-10 103.19114685058594 C 111.21466398239136 38.59951376914978, 193.49408268928528 146.26351118087769, 330 64.79334592819214" stroke="#8a63c9" stroke-width="19.41356897354126" fill="none" opacity="0.17"/><circle cx="36" cy="93" r="0.9" fill="#d9c8f5" opacity="0.85"/><circle cx="218" cy="28" r="1.7" fill="#d9c8f5" opacity="0.36"/><circle cx="306" cy="155" r="0.5" fill="#d9c8f5" opacity="0.50"/><circle cx="284" cy="160" r="0.9" fill="#d9c8f5" opacity="0.68"/><circle cx="132" cy="123" r="0.7" fill="#d9c8f5" opacity="0.32"/><circle cx="37" cy="13" r="1.7" fill="#d9c8f5" opacity="0.32"/><circle cx="71" cy="89" r="1.8" fill="#d9c8f5" opacity="0.46"/><circle cx="208" cy="41" r="1.2" fill="#d9c8f5" opacity="0.48"/><circle cx="262" cy="40" r="1.0" fill="#d9c8f5" opacity="0.81"/><circle cx="151" cy="173" r="1.6" fill="#d9c8f5" opacity="0.64"/><circle cx="248" cy="148" r="1.2" fill="#d9c8f5" opacity="0.84"/><circle cx="279" cy="22" r="0.9" fill="#d9c8f5" opacity="0.64"/><circle cx="16" cy="45" r="1.2" fill="#d9c8f5" opacity="0.85"/><circle cx="304" cy="179" r="1.2" fill="#d9c8f5" opacity="0.62"/><circle cx="290" cy="164" r="0.8" fill="#d9c8f5" opacity="0.78"/><circle cx="178" cy="30" r="0.7" fill="#d9c8f5" opacity="0.71"/><g transform="translate(160,132)"><path d="M0 -34 C 20 -22, 26 6, 22 46 L -22 46 C -26 6, -20 -22, 0 -34 Z" fill="#0d0722" stroke="#7b53c0" stroke-width="2"/><circle cx="0" cy="-24" r="11" fill="#0d0722" stroke="#7b53c0" stroke-width="2"/><path d="M-9 8 L 9 8" stroke="#b79ae8" stroke-width="2" opacity="0.8"/></g>
<rect width="320" height="200" fill="none" stroke="#000" stroke-opacity="0.35" stroke-width="4"/>
</svg>
