<svg xmlns="http://www.w3.org/2000/svg" viewBox="0 0 320 200">
<defs><linearGradient id="sky" x1="0" y1="0" x2="0" y2="1"><stop offset="0" stop-color="#241243"/><stop offset="0.65" stop-color="#150a2c"/><stop offset="1" stop-color="#0a0518"/></linearGradient>
<radialGradient id="moon"><stop offset="0" stop-color="#c9b3ef"/><stop offset="0.55" stop-color="#7c58b8"/><stop offset="1" stop-color="#3a2470" stop-opacity="0"/></radialGradient></defs>
<rect width="320" height="200" fill="url(#sky)"/>
<circle cx="219" cy="80" r="59" fill="url(#moon)" opacity="0.85"/>
<circle cx="219" cy="80" r="31" fill="#171034" stroke="#9d7fd6" stroke-width="1.2"/>
<path d="M-10 142.08856582641602 C 83.5348391532898 98.35814774036407, 213.85960936546326 190.27284681797028, 330 91.12449884414673" stroke="#8a63c9" stroke-width="14.616482377052307" fill="none" opacity="0.17"/><path d="M-10 61.65439784526825 C 109.40632224082947 15.524255633354187, 238.40789794921875 97.3826414346695, 330 19.425944685935974" stroke="#8a63c9" stroke-width="11.478587627410889" fill="none" opacity="0.18"/><path d="M-10 78.71165931224823 C 76.87326908111572 29.399669766426086, 224.41943764686584 128.83848190307617, 330 41.32201135158539" stroke="#8a63c9" stroke-width="21.66966700553894" fill="none" opacity="0.17"/><circle cx="155" cy="129" r="0.7" fill="#d9c8f5" opacity="0.82"/><circle cx="55" cy="140" r="1.4" fill="#d9c8f5" opacity="0.80"/><circle cx="138" cy="57" r="0.5" fill="#d9c8f5" opacity="0.55"/><circle cx="276" cy="100" r="0.6" fill="#d9c8f5" opacity="0.39"/><circle cx="147" cy="130" r="1.4" fill="#d9c8f5" opacity="0.57"/><circle cx="30" cy="33" r="0.6" fill="#d9c8f5" opacity="0.59"/><circle cx="39" cy="30" r="1.2" fill="#d9c8f5" opacity="0.57"/><circle cx="68" cy="112" r="1.6" fill="#d9c8f5" opacity="0.52"/><circle cx="37" cy="45" r="1.6" fill="#d9c8f5" opacity="0.63"/><circle cx="272" cy="187" r="1.1" fill="#d9c8f5" opacity="0.39"/><circle cx="223" cy="186" r="1.6" fill="#d9c8f5" opacity="0.81"/><circle cx="218" cy="199" r="0.6" fill="#d9c8f5" opacity="0.64"/><circle cx="132" cy="34" r="1.4" fill="#d9c8f5" opacity="0.88"/><circle cx="224" cy="193" r="1.7" fill="#d9c8f5" opacity="0.36"/><circle cx="207" cy="4" r="1.1" fill="#d9c8f5" opacity="0.44"/><circle cx="122" cy="181" r="1.8" fill="#d9c8f5" opacity="0.74"/><g transform="translate(160,132)"><path d="M0 -34 C 20 -22, 26 6, 22 46 L -22 46 C -26 6, -20 -22, 0 -34 Z" fill="#0d0722" stroke="#7b53c0" stroke-width="2"/><circle cx="0" cy="-24" r="11" fill="#0d0722" stroke="#7b53c0" stroke-width="2"/><path d="M-9 8 L 9 8" stroke="#b79ae8" stroke-width="2" opacity="0.8"/></g>
<rect width="320" height="200" fill="none" stroke="#000" stroke-opacity="0.35" stroke-width="4"/>
</svg>
