<svg xmlns="http://www.w3.org/2000/svg" viewBox="0 0 320 200">
<defs><linearGradient id="sky" x1="0" y1="0" x2="0" y2="1"><stop offset="0" stop-color="#241243"/><stop offset="0.65" stop-color="#150a2c"/><stop offset="1" stop-color="#0a0518"/></linearGradient>
<radialGradient id="moon"><stop offset="0" stop-color="#c9b3ef"/><stop offset="0.55" stop-color="#7c58b8"/><stop offset="1" stop-color="#3a2470" stop-opacity="0"/></radialGradient></defs>
<rect width="320" height="200" fill="url(#sky)"/>
<circle cx="151" cy="45" r="74" fill="url(#moon)" opacity="0.85"/>
<circle cx="151" cy="45" r="39" fill="#171034" stroke="#9d7fd6" stroke-width="1.2"/>
<path d="M-10 92.42098927497864 C 65.14876127243042 38.2248455286026, 198.38205814361572 139.07981038093567, 330 43.38323712348938" stroke="#8a63c9" stroke-width="20.71842610836029" fill="none" opacity="0.19"/><path d="M-10 89.97486650943756 C 62.73650407791138 49.877169728279114, 189.46946024894714 149.26277041435242, 330 65.47927439212799" stroke="#8a63c9" stroke-width="11.80663001537323" fill="none" opacity="0.18"/><path d="M-10 164.0285724401474 C 106.18664145469666 95.40574550628662, 201.18025660514832 217.5468534231186, 330 127.44960248470306" stroke="#8a63c9" stroke-width="16.052615880966187" fill="none" opacity="0.23"/><circle cx="52" cy="111" r="0.7" fill="#d9c8f5" opacity="0.71"/><circle cx="1" cy="186" r="0.7" fill="#d9c8f5" opacity="0.71"/><circle cx="294" cy="52" r="1.4" fill="#d9c8f5" opacity="0.72"/><circle cx="307" cy="19" r="1.0" fill="#d9c8f5" opacity="0.41"/><circle cx="295" cy="96" r="0.8" fill="#d9c8f5" opacity="0.31"/><circle cx="63" cy="185" r="1.4" fill="#d9c8f5" opacity="0.64"/><circle cx="71" cy="70" r="0.5" fill="#d9c8f5" opacity="0.37"/><circle cx="106" cy="93" r="1.2" fill="#d9c8f5" opacity="0.52"/><circle cx="159" cy="118" r="0.9" fill="#d9c8f5" opacity="0.56"/><circle cx="124" cy="75" r="1.3" fill="#d9c8f5" opacity="0.83"/><circle cx="212" cy="174" r="1.1" fill="#d9c8f5" opacity="0.88"/><circle cx="63" cy="6" r="0.9" fill="#d9c8f5" opacity="0.30"/><circle cx="310" cy="49" r="1.7" fill="#d9c8f5" opacity="0.39"/><circle cx="120" cy="16" r="1.6" fill="#d9c8f5" opacity="0.64"/><circle cx="59" cy="79" r="1.2" fill="#d9c8f5" opacity="0.79"/><circle cx="198" cy="26" r="0.6" fill="#d9c8f5" opacity="0.49"/><g transform="translate(160,128)"><path d="M-26 -18 A 34 34 0 1 0 26 -18 A 27 27 0 1 1 -26 -18 Z" fill="#0d0722" stroke="#7b53c0" stroke-width="2"/><path d="M-34 26 L 34 -10 M -20 36 L 30 8 M -6 44 L 26 26" stroke="#b79ae8" stroke-width="2.4" opacity="0.85"/></g>
<rect width="320" height="200" fill="none" stroke="#000" stroke-opacity="0.35" stroke-width="4"/>
</svg>
