<svg xmlns="http://www.w3.org/2000/svg" viewBox="0 0 320 200">
<defs><linearGradient id="sky" x1="0" y1="0" x2="0" y2="1"><stop offset="0" stop-color="#241243"/><stop offset="0.65" stop-color="#150a2c"/><stop offset="1" stop-color="#0a0518"/></linearGradient>
<radialGradient id="moon"><stop offset="0" stop-color="#c9b3ef"/><stop offset="0.55" stop-color="#7c58b8"/><stop offset="1" stop-color="#3a2470" stop-opacity="0"/></radialGradient></defs>
<rect width="320" height="200" fill="url(#sky)"/>
<circle cx="91" cy="77" r="50" fill="url(#moon)" opacity="0.85"/>
<circle cx="91" cy="77" r="26" fill="#171034" stroke="#9d7fd6" stroke-width="1.2"/>
<path d="M-10 63.52274775505066 C 102.66787648200989 13.032703399658203, 189.6009922027588 122.9944097995758, 330 25.178951025009155" stroke="#8a63c9" stroke-width="18.98417830467224" fill="none" opacity="0.17"/><path d="M-10 154.07494962215424 C 105.300532579422 109.92470502853394, 204.79478359222412 203.9346045255661, 330 99.23077762126923" stroke="#8a63c9" stroke-width="11.736688494682312" fill="none" opacity="0.20"/><path d="M-10 98.39052855968475 C 74.20872330665588 36.166179180145264, 194.1503405570984 141.25178515911102, 330 39.62404429912567" stroke="#8a63c9" stroke-width="14.018839359283447" fill="none" opacity="0.12"/><circle cx="93" cy="164" r="1.0" fill="#d9c8f5" opacity="0.84"/><circle cx="95" cy="130" r="1.7" fill="#d9c8f5" opacity="0.81"/><circle cx="278" cy="175" r="1.6" fill="#d9c8f5" opacity="0.82"/><circle cx="20" cy="22" r="1.0" fill="#d9c8f5" opacity="0.36"/><circle cx="253" cy="184" r="1.6" fill="#d9c8f5" opacity="0.87"/><circle cx="256" cy="33" r="1.6" fill="#d9c8f5" opacity="0.58"/><circle cx="234" cy="67" r="0.5" fill="#d9c8f5" opacity="0.44"/><circle cx="84" cy="70" r="1.0" fill="#d9c8f5" opacity="0.53"/><circle cx="196" cy="137" r="0.6" fill="#d9c8f5" opacity="0.40"/><circle cx="120" cy="159" r="1.6" fill="#d9c8f5" opacity="0.83"/><circle cx="49" cy="83" r="1.6" fill="#d9c8f5" opacity="0.34"/><circle cx="213" cy="20" r="1.1" fill="#d9c8f5" opacity="0.74"/><circle cx="31" cy="97" r="0.7" fill="#d9c8f5" opacity="0.85"/><circle cx="141" cy="54" r="1.4" fill="#d9c8f5" opacity="0.82"/><circle cx="300" cy="192" r="0.9" fill="#d9c8f5" opacity="0.44"/><circle cx="170" cy="124" r="1.6" fill="#d9c8f5" opacity="0.79"/><g transform="translate(160,128)"><path d="M-26 -18 A 34 34 0 1 0 26 -18 A 27 27 0 1 1 -26 -18 Z" fill="#0d0722" stroke="#7b53c0" stroke-width="2"/><path d="M-34 26 L 34 -10 M -20 36 L 30 8 M -6 44 L 26 26" stroke="#b79ae8" stroke-width="2.4" opacity="0.85"/></g>
<rect width="320" height="200" fill="none" stroke="#000" stroke-opacity="0.35" stroke-width="4"/>
</svg>
