<svg xmlns="http://www.w3.org/2000/svg" viewBox="0 0 320 200">
<defs><linearGradient id="sky" x1="0" y1="0" x2="0" y2="1"><stop offset="0" stop-color="#241243"/><stop offset="0.65" stop-color="#150a2c"/><stop offset="1" stop-color="#0a0518"/></linearGradient>
<radialGradient id="moon"><stop offset="0" stop-color="#c9b3ef"/><stop offset="0.55" stop-color="#7c58b8"/><stop offset="1" stop-color="#3a2470" stop-opacity="0"/></radialGradient></defs>
<rect width="320" height="200" fill="url(#sky)"/>
<circle cx="85" cy="44" r="53" fill="url(#moon)" opacity="0.85"/>
<circle cx="85" cy="44" r="28" fill="#171034" stroke="#9d7fd6" stroke-width="1.2"/>
<path d="M-10 137.62012004852295 C 68.22715401649475 73.84110510349274, 184.31867837905884 177.92802810668945, 330 110.76836824417114" stroke="#8a63c9" stroke-width="14.395912408828735" fill="none" opacity="0.11"/><path d="M-10 130.67225098609924 C 106.04853987693787 71.05863511562347, 200.2462863922119 171.23495817184448, 330 93.21981549263" stroke="#8a63c9" stroke-width="14.1583251953125" fill="none" opacity="0.16"/><path d="M-10 147.60221123695374 C 80.9901237487793 97.9077672958374, 198.50947380065918 183.51326882839203, 330 97.33342289924622" stroke="#8a63c9" stroke-width="15.543864250183105" fill="none" opacity="0.23"/><circle cx="158" cy="171" r="0.6" fill="#d9c8f5" opacity="0.56"/><circle cx="305" cy="177" r="1.2" fill="#d9c8f5" opacity="0.75"/><circle cx="78" cy="5" r="1.7" fill="#d9c8f5" opacity="0.45"/><circle cx="154" cy="19" r="1.6" fill="#d9c8f5" opacity="0.67"/><circle cx="177" cy="144" r="1.4" fill="#d9c8f5" opacity="0.86"/><circle cx="136" cy="128" r="1.0" fill="#d9c8f5" opacity="0.40"/><circle cx="278" cy="110" r="0.6" fill="#d9c8f5" opacity="0.42"/><circle cx="21" cy="169" r="1.5" fill="#d9c8f5" opacity="0.83"/><circle cx="25" cy="110" r="1.5" fill="#d9c8f5" opacity="0.39"/><circle cx="104" cy="82" r="0.7" fill="#d9c8f5" opacity="0.78"/><circle cx="267" cy="29" r="0.7" fill="#d9c8f5" opacity="0.41"/><circle cx="197" cy="109" r="0.5" fill="#d9c8f5" opacity="0.49"/><circle cx="200" cy="4" r="0.9" fill="#d9c8f5" opacity="0.69"/><circle cx="118" cy="135" r="1.6" fill="#d9c8f5" opacity="0.48"/><circle cx="297" cy="53" r="1.0" fill="#d9c8f5" opacity="0.69"/><circle cx="68" cy="92" r="0.7" fill="#d9c8f5" opacity="0.33"/><g transform="translate(160,132)"><path d="M0 -34 C 20 -22, 26 6, 22 46 L -22 46 C -26 6, -20 -22, 0 -34 Z" fill="#0d0722" stroke="#7b53c0" stroke-width="2"/><circle cx="0" cy="-24" r="11" fill="#0d0722" stroke="#7b53c0" stroke-width="2"/><path d="M-9 8 L 9 8" stroke="#b79ae8" stroke-width="2" opacity="0.8"/></g>
<rect width="320" height="200" fill="none" stroke="#000" stroke-opacity="0.35" stroke-width="4"/>
</svg>
