<svg xmlns="http://www.w3.org/2000/svg" viewBox="0 0 320 200">
<defs><linearGradient id="sky" x1="0" y1="0" x2="0" y2="1"><stop offset="0" stop-color="#241243"/><stop offset="0.65" stop-color="#150a2c"/><stop offset="1" stop-color="#0a0518"/></linearGradient>
<radialGradient id="moon"><stop offset="0" stop-color="#c9b3ef"/><stop offset="0.55" stop-color="#7c58b8"/><stop offset="1" stop-color="#3a2470" stop-opacity="0"/></radialGradient></defs>
<rect width="320" height="200" fill="url(#sky)"/>
<circle cx="154" cy="41" r="82" fill="url(#moon)" opacity="0.85"/>
<circle cx="154" cy="41" r="43" fill="#171034" stroke="#9d7fd6" stroke-width="1.2"/>
<path d="M-10 162.3083734512329 C 69.71854090690613 111.80790603160858, 232.43006229400635 216.77923917770386, 330 131.22243404388428" stroke="#8a63c9" stroke-width="13.988639235496521" fill="none" opacity="0.24"/><path d="M-10 142.83544421195984 C 107.08067536354065 90.49587190151215, 203.88676285743713 195.30771732330322, 330 84.9292528629303" stroke="#8a63c9" stroke-width="8.199013233184814" fill="none" opacity="0.11"/><path d="M-10 96.61464512348175 C 76.93286061286926 29.736868739128113, 199.66867804527283 128.75637114048004, 330 64.53096687793732" stroke="#8a63c9" stroke-width="18.269899606704712" fill="none" opacity="0.23"/><circle cx="252" cy="133" r="1.1" fill="#d9c8f5" opacity="0.45"/><circle cx="127" cy="115" r="1.4" fill="#d9c8f5" opacity="0.42"/><circle cx="19" cy="59" r="0.9" fill="#d9c8f5" opacity="0.70"/><circle cx="141" cy="139" r="1.2" fill="#d9c8f5" opacity="0.38"/><circle cx="14" cy="33" r="0.7" fill="#d9c8f5" opacity="0.62"/><circle cx="303" cy="51" r="1.3" fill="#d9c8f5" opacity="0.32"/><circle cx="130" cy="196" r="1.3" fill="#d9c8f5" opacity="0.34"/><circle cx="30" cy="179" r="1.5" fill="#d9c8f5" opacity="0.77"/><circle cx="57" cy="87" r="1.3" fill="#d9c8f5" opacity="0.48"/><circle cx="71" cy="136" r="0.9" fill="#d9c8f5" opacity="0.74"/><circle cx="21" cy="173" r="0.7" fill="#d9c8f5" opacity="0.55"/><circle cx="129" cy="87" r="1.1" fill="#d9c8f5" opacity="0.40"/><circle cx="162" cy="159" r="0.5" fill="#d9c8f5" opacity="0.54"/><circle cx="317" cy="33" r="1.7" fill="#d9c8f5" opacity="0.79"/><circle cx="114" cy="54" r="1.1" fill="#d9c8f5" opacity="0.36"/><circle cx="310" cy="118" r="1.6" fill="#d9c8f5" opacity="0.76"/><g transform="translate(160,128)"><path d="M-26 -18 A 34 34 0 1 0 26 -18 A 27 27 0 1 1 -26 -18 Z" fill="#0d0722" stroke="#7b53c0" stroke-width="2"/><path d="M-34 26 L 34 -10 M -20 36 L 30 8 M -6 44 L 26 26" stroke="#b79ae8" stroke-width="2.4" opacity="0.85"/></g>
<rect width="320" height="200" fill="none" stroke="#000" stroke-opacity="0.35" stroke-width="4"/>
</svg>
