<svg xmlns="http://www.w3.org/2000/svg" viewBox="0 0 320 200">
<defs><linearGradient id="sky" x1="0" y1="0" x2="0" y2="1"><stop offset="0" stop-color="#241243"/><stop offset="0.65" stop-color="#150a2c"/><stop offset="1" stop-color="#0a0518"/></linearGradient>
<radialGradient id="moon"><stop offset="0" stop-color="#c9b3ef"/><stop offset="0.55" stop-color="#7c58b8"/><stop offset="1" stop-color="#3a2470" stop-opacity="0"/></radialGradient></defs>
<rect width="320" height="200" fill="url(#sky)"/>
<circle cx="109" cy="86" r="90" fill="url(#moon)" opacity="0.85"/>
<circle cx="109" cy="86" r="47" fill="#171034" stroke="#9d7fd6" stroke-width="1.2"/>
<path d="M-10 120.3379374742508 C 96.83696150779724 80.02675652503967, 198.25531482696533 159.34510827064514, 330 83.14709007740021" stroke="#8a63c9" stroke-width="20.86719787120819" fill="none" opacity="0.11"/><path d="M-10 84.79069232940674 C 68.33682060241699 41.709354519844055, 209.67621088027954 126.13964796066284, 330 38.83620500564575" stroke="#8a63c9" stroke-width="14.63513433933258" fill="none" opacity="0.21"/><path d="M-10 115.36818742752075 C 99.0897274017334 50.50449788570404, 197.7941071987152 153.49668979644775, 330 84.12467956542969" stroke="#8a63c9" stroke-width="21.087473273277283" fill="none" opacity="0.23"/><circle cx="138" cy="132" r="0.6" fill="#d9c8f5" opacity="0.37"/><circle cx="205" cy="174" r="1.5" fill="#d9c8f5" opacity="0.47"/><circle cx="153" cy="80" r="0.9" fill="#d9c8f5" opacity="0.83"/><circle cx="200" cy="122" r="1.5" fill="#d9c8f5" opacity="0.65"/><circle cx="275" cy="23" r="1.5" fill="#d9c8f5" opacity="0.53"/><circle cx="63" cy="10" r="1.6" fill="#d9c8f5" opacity="0.81"/><circle cx="262" cy="190" r="1.7" fill="#d9c8f5" opacity="0.48"/><circle cx="110" cy="70" r="1.2" fill="#d9c8f5" opacity="0.57"/><circle cx="9" cy="111" r="1.5" fill="#d9c8f5" opacity="0.40"/><circle cx="190" cy="43" r="1.5" fill="#d9c8f5" opacity="0.38"/><circle cx="82" cy="108" r="0.8" fill="#d9c8f5" opacity="0.60"/><circle cx="311" cy="9" r="1.4" fill="#d9c8f5" opacity="0.83"/><circle cx="281" cy="33" r="1.3" fill="#d9c8f5" opacity="0.82"/><circle cx="16" cy="171" r="1.1" fill="#d9c8f5" opacity="0.66"/><circle cx="10" cy="171" r="1.1" fill="#d9c8f5" opacity="0.66"/><circle cx="191" cy="37" r="0.9" fill="#d9c8f5" opacity="0.49"/><g transform="translate(160,128)"><path d="M-26 -18 A 34 34 0 1 0 26 -18 A 27 27 0 1 1 -26 -18 Z" fill="#0d0722" stroke="#7b53c0" stroke-width="2"/><path d="M-34 26 L 34 -10 M -20 36 L 30 8 M -6 44 L 26 26" stroke="#b79ae8" stroke-width="2.4" opacity="0.85"/></g>
<rect width="320" height="200" fill="none" stroke="#000" stroke-opacity="0.35" stroke-width="4"/>
</svg>
