<svg xmlns="http://www.w3.org/2000/svg" viewBox="0 0 320 200">
<defs><linearGradient id="sky" x1="0" y1="0" x2="0" y2="1"><stop offset="0" stop-color="#241243"/><stop offset="0.65" stop-color="#150a2c"/><stop offset="1" stop-color="#0a0518"/></linearGradient>
<radialGradient id="moon"><stop offset="0" stop-color="#c9b3ef"/><stop offset="0.55" stop-color="#7c58b8"/><stop offset="1" stop-color="#3a2470" stop-opacity="0"/></radialGradient></defs>
<rect width="320" height="200" fill="url(#sky)"/>
<circle cx="157" cy="82" r="72" fill="url(#moon)" opacity="0.85"/>
<circle cx="157" cy="82" r="38" fill="#171034" stroke="#9d7fd6" stroke-width="1.2"/>
<path d="M-10 148.97199094295502 C 106.41165733337402 91.5170955657959, 183.58681082725525 189.73484814167023, 330 107.91858613491058" stroke="#8a63c9" stroke-width="18.45306885242462" fill="none" opacity="0.22"/><path d="M-10 103.5595703125 C 94.0433943271637 39.98718559741974, 189.8688554763794 161.12923324108124, 330 75.88138580322266" stroke="#8a63c9" stroke-width="20.008285522460938" fill="none" opacity="0.23"/><path d="M-10 136.4898693561554 C 109.90442991256714 90.51240384578705, 188.27824473381042 172.7208000421524, 330 86.35340571403503" stroke="#8a63c9" stroke-width="17.61712682247162" fill="none" opacity="0.21"/><circle cx="28" cy="15" r="0.6" fill="#d9c8f5" opacity="0.63"/><circle cx="277" cy="196" r="1.1" fill="#d9c8f5" opacity="0.85"/><circle cx="229" cy="138" r="1.4" fill="#d9c8f5" opacity="0.85"/><circle cx="302" cy="89" r="1.4" fill="#d9c8f5" opacity="0.69"/><circle cx="266" cy="68" r="1.7" fill="#d9c8f5" opacity="0.59"/><circle cx="290" cy="102" r="0.6" fill="#d9c8f5" opacity="0.36"/><circle cx="44" cy="40" r="1.2" fill="#d9c8f5" opacity="0.89"/><circle cx="250" cy="89" r="1.2" fill="#d9c8f5" opacity="0.53"/><circle cx="173" cy="92" r="1.1" fill="#d9c8f5" opacity="0.64"/><circle cx="37" cy="126" r="1.5" fill="#d9c8f5" opacity="0.55"/><circle cx="18" cy="191" r="1.6" fill="#d9c8f5" opacity="0.78"/><circle cx="100" cy="136" r="1.6" fill="#d9c8f5" opacity="0.76"/><circle cx="235" cy="160" r="1.4" fill="#d9c8f5" opacity="0.81"/><circle cx="300" cy="19" r="0.9" fill="#d9c8f5" opacity="0.39"/><circle cx="191" cy="26" r="0.6" fill="#d9c8f5" opacity="0.82"/><circle cx="226" cy="11" r="1.0" fill="#d9c8f5" opacity="0.36"/><g transform="translate(160,132)"><path d="M0 -34 C 20 -22, 26 6, 22 46 L -22 46 C -26 6, -20 -22, 0 -34 Z" fill="#0d0722" stroke="#7b53c0" stroke-width="2"/><circle cx="0" cy="-24" r="11" fill="#0d0722" stroke="#7b53c0" stroke-width="2"/><path d="M-9 8 L 9 8" stroke="#b79ae8" stroke-width="2" opacity="0.8"/></g>
<rect width="320" height="200" fill="none" stroke="#000" stroke-opacity="0.35" stroke-width="4"/>
</svg>
