<svg xmlns="http://www.w3.org/2000/svg" viewBox="0 0 320 200">
<defs><linearGradient id="sky" x1="0" y1="0" x2="0" y2="1"><stop offset="0" stop-color="#241243"/><stop offset="0.65" stop-color="#150a2c"/><stop offset="1" stop-color="#0a0518"/></linearGradient>
<radialGradient id="moon"><stop offset="0" stop-color="#c9b3ef"/><stop offset="0.55" stop-color="#7c58b8"/><stop offset="1" stop-color="#3a2470" stop-opacity="0"/></radialGradient></defs>
<rect width="320" height="200" fill="url(#sky)"/>
<circle cx="187" cy="59" r="74" fill="url(#moon)" opacity="0.85"/>
<circle cx="187" cy="59" r="39" fill="#171034" stroke="#9d7fd6" stroke-width="1.2"/>
<path d="M-10 134.0487426519394 C 109.17906045913696 88.8933402299881, 218.23853373527527 182.24816024303436, 330 89.09380614757538" stroke="#8a63c9" stroke-width="12.696847319602966" fill="none" opacity="0.21"/><path d="M-10 77.96071588993073 C 101.9451892375946 35.50614595413208, 214.23131346702576 118.28367829322815, 330 51.79981052875519" stroke="#8a63c9" stroke-width="11.725927233695984" fill="none" opacity="0.19"/><path d="M-10 125.19583344459534 C 88.66473913192749 81.35986864566803, 211.12620949745178 181.7594176530838, 330 79.04801726341248" stroke="#8a63c9" stroke-width="11.374518990516663" fill="none" opacity="0.18"/><circle cx="125" cy="23" r="0.5" fill="#d9c8f5" opacity="0.39"/><circle cx="213" cy="69" r="1.5" fill="#d9c8f5" opacity="0.58"/><circle cx="314" cy="188" r="1.6" fill="#d9c8f5" opacity="0.55"/><circle cx="286" cy="0" r="0.8" fill="#d9c8f5" opacity="0.51"/><circle cx="259" cy="130" r="1.8" fill="#d9c8f5" opacity="0.39"/><circle cx="281" cy="7" r="1.4" fill="#d9c8f5" opacity="0.73"/><circle cx="53" cy="157" r="1.2" fill="#d9c8f5" opacity="0.83"/><circle cx="267" cy="26" r="1.1" fill="#d9c8f5" opacity="0.31"/><circle cx="120" cy="68" r="1.8" fill="#d9c8f5" opacity="0.71"/><circle cx="294" cy="190" r="1.5" fill="#d9c8f5" opacity="0.68"/><circle cx="254" cy="96" r="0.9" fill="#d9c8f5" opacity="0.71"/><circle cx="273" cy="14" r="1.1" fill="#d9c8f5" opacity="0.67"/><circle cx="47" cy="27" r="0.9" fill="#d9c8f5" opacity="0.47"/><circle cx="89" cy="46" r="1.2" fill="#d9c8f5" opacity="0.86"/><circle cx="138" cy="187" r="1.0" fill="#d9c8f5" opacity="0.74"/><circle cx="233" cy="157" r="1.2" fill="#d9c8f5" opacity="0.82"/><g transform="translate(160,128)"><path d="M-26 -18 A 34 34 0 1 0 26 -18 A 27 27 0 1 1 -26 -18 Z" fill="#0d0722" stroke="#7b53c0" stroke-width="2"/><path d="M-34 26 L 34 -10 M -20 36 L 30 8 M -6 44 L 26 26" stroke="#b79ae8" stroke-width="2.4" opacity="0.85"/></g>
<rect width="320" height="200" fill="none" stroke="#000" stroke-opacity="0.35" stroke-width="4"/>
</svg>
