<svg xmlns="http://www.w3.org/2000/svg" viewBox="0 0 320 200">
<defs><linearGradient id="sky" x1="0" y1="0" x2="0" y2="1"><stop offset="0" stop-color="#241243"/><stop offset="0.65" stop-color="#150a2c"/><stop offset="1" stop-color="#0a0518"/></linearGradient>
<radialGradient id="moon"><stop offset="0" stop-color="#c9b3ef"/><stop offset="0.55" stop-color="#7c58b8"/><stop offset="1" stop-color="#3a2470" stop-opacity="0"/></radialGradient></defs>
<rect width="320" height="200" fill="url(#sky)"/>
<circle cx="116" cy="53" r="67" fill="url(#moon)" opacity="0.85"/>
<circle cx="116" cy="53" r="35" fill="#171034" stroke="#9d7fd6" stroke-width="1.2"/>
<path d="M-10 122.66601026058197 C 73.23960542678833 72.61244177818298, 214.93422389030457 158.68465662002563, 330 64.48861539363861" stroke="#8a63c9" stroke-width="12.463317275047302" fill="none" opacity="0.17"/><path d="M-10 92.67597198486328 C 90.24074077606201 51.319623589515686, 209.15793299674988 142.60271966457367, 330 45.051796436309814" stroke="#8a63c9" stroke-width="15.16137969493866" fill="none" opacity="0.21"/><path d="M-10 75.20690262317657 C 71.36511325836182 6.055583953857422, 237.90692925453186 115.7797646522522, 330 19.128618836402893" stroke="#8a63c9" stroke-width="21.80684220790863" fill="none" opacity="0.13"/><circle cx="259" cy="14" r="1.0" fill="#d9c8f5" opacity="0.41"/><circle cx="182" cy="121" r="0.8" fill="#d9c8f5" opacity="0.46"/><circle cx="3" cy="32" r="1.6" fill="#d9c8f5" opacity="0.35"/><circle cx="204" cy="60" r="1.1" fill="#d9c8f5" opacity="0.35"/><circle cx="168" cy="128" r="1.1" fill="#d9c8f5" opacity="0.35"/><circle cx="121" cy="35" r="1.7" fill="#d9c8f5" opacity="0.46"/><circle cx="275" cy="9" r="0.7" fill="#d9c8f5" opacity="0.64"/><circle cx="95" cy="171" r="0.8" fill="#d9c8f5" opacity="0.78"/><circle cx="18" cy="6" r="1.1" fill="#d9c8f5" opacity="0.79"/><circle cx="279" cy="150" r="0.7" fill="#d9c8f5" opacity="0.87"/><circle cx="185" cy="62" r="1.8" fill="#d9c8f5" opacity="0.43"/><circle cx="139" cy="159" r="1.2" fill="#d9c8f5" opacity="0.65"/><circle cx="216" cy="94" r="1.3" fill="#d9c8f5" opacity="0.87"/><circle cx="27" cy="94" r="1.2" fill="#d9c8f5" opacity="0.64"/><circle cx="99" cy="184" r="1.6" fill="#d9c8f5" opacity="0.70"/><circle cx="293" cy="41" r="1.1" fill="#d9c8f5" opacity="0.83"/><g transform="translate(160,128)"><path d="M-26 -18 A 34 34 0 1 0 26 -18 A 27 27 0 1 1 -26 -18 Z" fill="#0d0722" stroke="#7b53c0" stroke-width="2"/><path d="M-34 26 L 34 -10 M -20 36 L 30 8 M -6 44 L 26 26" stroke="#b79ae8" stroke-width="2.4" opacity="0.85"/></g>
<rect width="320" height="200" fill="none" stroke="#000" stroke-opacity="0.35" stroke-width="4"/>
</svg>
