<svg xmlns="http://www.w3.org/2000/svg" viewBox="0 0 320 200">
<defs><linearGradient id="sky" x1="0" y1="0" x2="0" y2="1"><stop offset="0" stop-color="#241243"/><stop offset="0.65" stop-color="#150a2c"/><stop offset="1" stop-color="#0a0518"/></linearGradient>
<radialGradient id="moon"><stop offset="0" stop-color="#c9b3ef"/><stop offset="0.55" stop-color="#7c58b8"/><stop offset="1" stop-color="#3a2470" stop-opacity="0"/></radialGradient></defs>
<rect width="320" height="200" fill="url(#sky)"/>
<circle cx="105" cy="53" r="67" fill="url(#moon)" opacity="0.85"/>
<circle cx="105" cy="53" r="35" fill="#171034" stroke="#9d7fd6" stroke-width="1.2"/>
<path d="M-10 126.75042808055878 C 118.21333408355713 70.8009135723114, 230.62800765037537 182.9190981388092, 330 73.12777698040009" stroke="#8a63c9" stroke-width="20.696959495544434" fill="none" opacity="0.19"/><path d="M-10 98.37302923202515 C 109.66838836669922 56.70267105102539, 214.03926014900208 130.89156806468964, 330 42.93858051300049" stroke="#8a63c9" stroke-width="16.800308227539062" fill="none" opacity="0.20"/><path d="M-10 61.852909326553345 C 113.17095279693604 -6.02260947227478, 212.58525967597961 96.26531302928925, 330 36.90905690193176" stroke="#8a63c9" stroke-width="14.572815656661987" fill="none" opacity="0.13"/><circle cx="73" cy="41" r="1.8" fill="#d9c8f5" opacity="0.45"/><circle cx="112" cy="29" r="1.2" fill="#d9c8f5" opacity="0.48"/><circle cx="249" cy="153" r="1.4" fill="#d9c8f5" opacity="0.52"/><circle cx="128" cy="55" r="1.6" fill="#d9c8f5" opacity="0.72"/><circle cx="156" cy="157" r="0.6" fill="#d9c8f5" opacity="0.84"/><circle cx="136" cy="30" r="1.7" fill="#d9c8f5" opacity="0.56"/><circle cx="181" cy="121" r="1.4" fill="#d9c8f5" opacity="0.61"/><circle cx="191" cy="29" r="0.7" fill="#d9c8f5" opacity="0.73"/><circle cx="266" cy="42" r="1.2" fill="#d9c8f5" opacity="0.77"/><circle cx="218" cy="198" r="1.2" fill="#d9c8f5" opacity="0.70"/><circle cx="168" cy="9" r="1.4" fill="#d9c8f5" opacity="0.66"/><circle cx="115" cy="147" r="0.7" fill="#d9c8f5" opacity="0.75"/><circle cx="103" cy="13" r="1.1" fill="#d9c8f5" opacity="0.32"/><circle cx="281" cy="38" r="1.6" fill="#d9c8f5" opacity="0.34"/><circle cx="304" cy="76" r="1.2" fill="#d9c8f5" opacity="0.79"/><circle cx="300" cy="77" r="0.7" fill="#d9c8f5" opacity="0.84"/><g transform="translate(160,132)"><path d="M0 -34 C 20 -22, 26 6, 22 46 L -22 46 C -26 6, -20 -22, 0 -34 Z" fill="#0d0722" stroke="#7b53c0" stroke-width="2"/><circle cx="0" cy="-24" r="11" fill="#0d0722" stroke="#7b53c0" stroke-width="2"/><path d="M-9 8 L 9 8" stroke="#b79ae8" stroke-width="2" opacity="0.8"/></g>
<rect width="320" height="200" fill="none" stroke="#000" stroke-opacity="0.35" stroke-width="4"/>
</svg>
