<svg xmlns="http://www.w3.org/2000/svg" viewBox="0 0 320 200">
<defs><linearGradient id="sky" x1="0" y1="0" x2="0" y2="1"><stop offset="0" stop-color="#241243"/><stop offset="0.65" stop-color="#150a2c"/><stop offset="1" stop-color="#0a0518"/></linearGradient>
<radialGradient id="moon"><stop offset="0" stop-color="#c9b3ef"/><stop offset="0.55" stop-color="#7c58b8"/><stop offset="1" stop-color="#3a2470" stop-opacity="0"/></radialGradient></defs>
<rect width="320" height="200" fill="url(#sky)"/>
<circle cx="127" cy="85" r="65" fill="url(#moon)" opacity="0.85"/>
<circle cx="127" cy="85" r="34" fill="#171034" stroke="#9d7fd6" stroke-width="1.2"/>
<path d="M-10 125.25512397289276 C 66.69625639915466 62.19785392284393, 223.2603621482849 172.61455595493317, 330 78.25288236141205" stroke="#8a63c9" stroke-width="18.382737636566162" fill="none" opacity="0.19"/><path d="M-10 162.44631588459015 C 98.30166578292847 96.86067223548889, 228.35988521575928 203.63531351089478, 330 141.12968981266022" stroke="#8a63c9" stroke-width="15.689969897270203" fill="none" opacity="0.17"/><path d="M-10 74.82890665531158 C 102.46463298797607 33.342227935791016, 233.7417447566986 105.68451523780823, 330 18.28996479511261" stroke="#8a63c9" stroke-width="12.63124418258667" fill="none" opacity="0.21"/><circle cx="111" cy="49" r="1.1" fill="#d9c8f5" opacity="0.65"/><circle cx="1" cy="20" r="0.7" fill="#d9c8f5" opacity="0.57"/><circle cx="175" cy="176" r="0.5" fill="#d9c8f5" opacity="0.70"/><circle cx="265" cy="200" r="0.9" fill="#d9c8f5" opacity="0.65"/><circle cx="270" cy="126" r="1.1" fill="#d9c8f5" opacity="0.89"/><circle cx="246" cy="122" r="1.3" fill="#d9c8f5" opacity="0.36"/><circle cx="271" cy="106" r="1.2" fill="#d9c8f5" opacity="0.39"/><circle cx="5" cy="167" r="1.4" fill="#d9c8f5" opacity="0.65"/><circle cx="59" cy="83" r="1.5" fill="#d9c8f5" opacity="0.35"/><circle cx="116" cy="189" r="0.7" fill="#d9c8f5" opacity="0.82"/><circle cx="133" cy="12" r="1.3" fill="#d9c8f5" opacity="0.50"/><circle cx="81" cy="181" r="1.6" fill="#d9c8f5" opacity="0.54"/><circle cx="255" cy="186" r="1.2" fill="#d9c8f5" opacity="0.52"/><circle cx="182" cy="160" r="0.6" fill="#d9c8f5" opacity="0.57"/><circle cx="142" cy="27" r="0.8" fill="#d9c8f5" opacity="0.63"/><circle cx="91" cy="99" r="0.6" fill="#d9c8f5" opacity="0.51"/><g transform="translate(160,132)"><path d="M0 -34 C 20 -22, 26 6, 22 46 L -22 46 C -26 6, -20 -22, 0 -34 Z" fill="#0d0722" stroke="#7b53c0" stroke-width="2"/><circle cx="0" cy="-24" r="11" fill="#0d0722" stroke="#7b53c0" stroke-width="2"/><path d="M-9 8 L 9 8" stroke="#b79ae8" stroke-width="2" opacity="0.8"/></g>
<rect width="320" height="200" fill="none" stroke="#000" stroke-opacity="0.35" stroke-width="4"/>
</svg>
