<svg xmlns="http://www.w3.org/2000/svg" viewBox="0 0 320 200">
<defs><linearGradient id="sky" x1="0" y1="0" x2="0" y2="1"><stop offset="0" stop-color="#241243"/><stop offset="0.65" stop-color="#150a2c"/><stop offset="1" stop-color="#0a0518"/></linearGradient>
<radialGradient id="moon"><stop offset="0" stop-color="#c9b3ef"/><stop offset="0.55" stop-color="#7c58b8"/><stop offset="1" stop-color="#3a2470" stop-opacity="0"/></radialGradient></defs>
<rect width="320" height="200" fill="url(#sky)"/>
<circle cx="195" cy="76" r="64" fill="url(#moon)" opacity="0.85"/>
<circle cx="195" cy="76" r="34" fill="#171034" stroke="#9d7fd6" stroke-width="1.2"/>
<path d="M-10 103.8981682062149 C 75.41090369224548 57.191075682640076, 219.0382182598114 139.37171816825867, 330 56.57185614109039" stroke="#8a63c9" stroke-width="10.04768705368042" fill="none" opacity="0.17"/><path d="M-10 71.11895740032196 C 73.88185501098633 29.397812485694885, 220.1929807662964 108.08908343315125, 330 35.7906311750412" stroke="#8a63c9" stroke-width="8.202713251113892" fill="none" opacity="0.17"/><path d="M-10 110.44820129871368 C 82.53172874450684 60.036479234695435, 224.23805594444275 165.23026943206787, 330 60.374117493629456" stroke="#8a63c9" stroke-width="21.870113015174866" fill="none" opacity="0.18"/><circle cx="197" cy="80" r="0.6" fill="#d9c8f5" opacity="0.47"/><circle cx="97" cy="132" r="1.0" fill="#d9c8f5" opacity="0.39"/><circle cx="96" cy="39" r="1.2" fill="#d9c8f5" opacity="0.64"/><circle cx="126" cy="68" r="1.7" fill="#d9c8f5" opacity="0.90"/><circle cx="52" cy="1" r="0.7" fill="#d9c8f5" opacity="0.36"/><circle cx="58" cy="6" r="1.8" fill="#d9c8f5" opacity="0.38"/><circle cx="178" cy="92" r="1.0" fill="#d9c8f5" opacity="0.86"/><circle cx="136" cy="75" r="1.4" fill="#d9c8f5" opacity="0.53"/><circle cx="60" cy="74" r="0.9" fill="#d9c8f5" opacity="0.31"/><circle cx="204" cy="42" r="1.7" fill="#d9c8f5" opacity="0.35"/><circle cx="243" cy="60" r="0.7" fill="#d9c8f5" opacity="0.53"/><circle cx="85" cy="31" r="1.2" fill="#d9c8f5" opacity="0.58"/><circle cx="64" cy="38" r="1.7" fill="#d9c8f5" opacity="0.77"/><circle cx="198" cy="62" r="1.1" fill="#d9c8f5" opacity="0.82"/><circle cx="278" cy="156" r="0.9" fill="#d9c8f5" opacity="0.67"/><circle cx="41" cy="117" r="1.6" fill="#d9c8f5" opacity="0.50"/><g transform="translate(160,132)"><path d="M0 -34 C 20 -22, 26 6, 22 46 L -22 46 C -26 6, -20 -22, 0 -34 Z" fill="#0d0722" stroke="#7b53c0" stroke-width="2"/><circle cx="0" cy="-24" r="11" fill="#0d0722" stroke="#7b53c0" stroke-width="2"/><path d="M-9 8 L 9 8" stroke="#b79ae8" stroke-width="2" opacity="0.8"/></g>
<rect width="320" height="200" fill="none" stroke="#000" stroke-opacity="0.35" stroke-width="4"/>
</svg>
