<svg xmlns="http://www.w3.org/2000/svg" viewBox="0 0 320 200">
<defs><linearGradient id="sky" x1="0" y1="0" x2="0" y2="1"><stop offset="0" stop-color="#241243"/><stop offset="0.65" stop-color="#150a2c"/><stop offset="1" stop-color="#0a0518"/></linearGradient>
<radialGradient id="moon"><stop offset="0" stop-color="#c9b3ef"/><stop offset="0.55" stop-color="#7c58b8"/><stop offset="1" stop-color="#3a2470" stop-opacity="0"/></radialGradient></defs>
<rect width="320" height="200" fill="url(#sky)"/>
<circle cx="253" cy="66" r="77" fill="url(#moon)" opacity="0.85"/>
<circle cx="253" cy="66" r="41" fill="#171034" stroke="#9d7fd6" stroke-width="1.2"/>
<path d="M-10 94.56668615341187 C 82.95422315597534 44.32389676570892, 220.71821451187134 147.78596341609955, 330 73.86713743209839" stroke="#8a63c9" stroke-width="19.718097805976868" fill="none" opacity="0.20"/><path d="M-10 82.47722744941711 C 70.76396942138672 25.232256054878235, 215.6136918067932 115.25894463062286, 330 26.726409196853638" stroke="#8a63c9" stroke-width="16.68397295475006" fill="none" opacity="0.24"/><path d="M-10 64.42883133888245 C 98.9444088935852 22.37300753593445, 202.48396754264832 96.33596241474152, 330 36.98057532310486" stroke="#8a63c9" stroke-width="11.833922028541565" fill="none" opacity="0.22"/><circle cx="162" cy="1" r="1.1" fill="#d9c8f5" opacity="0.57"/><circle cx="311" cy="27" r="0.9" fill="#d9c8f5" opacity="0.88"/><circle cx="114" cy="83" r="0.8" fill="#d9c8f5" opacity="0.62"/><circle cx="206" cy="36" r="0.6" fill="#d9c8f5" opacity="0.88"/><circle cx="65" cy="144" r="0.8" fill="#d9c8f5" opacity="0.41"/><circle cx="137" cy="122" r="1.3" fill="#d9c8f5" opacity="0.52"/><circle cx="284" cy="163" r="0.9" fill="#d9c8f5" opacity="0.73"/><circle cx="25" cy="82" r="1.6" fill="#d9c8f5" opacity="0.75"/><circle cx="113" cy="10" r="1.5" fill="#d9c8f5" opacity="0.31"/><circle cx="6" cy="88" r="1.1" fill="#d9c8f5" opacity="0.51"/><circle cx="180" cy="26" r="0.9" fill="#d9c8f5" opacity="0.73"/><circle cx="68" cy="68" r="1.8" fill="#d9c8f5" opacity="0.81"/><circle cx="254" cy="184" r="1.1" fill="#d9c8f5" opacity="0.72"/><circle cx="310" cy="200" r="1.3" fill="#d9c8f5" opacity="0.51"/><circle cx="313" cy="186" r="0.7" fill="#d9c8f5" opacity="0.59"/><circle cx="174" cy="11" r="1.7" fill="#d9c8f5" opacity="0.39"/><g transform="translate(160,132)"><path d="M0 -34 C 20 -22, 26 6, 22 46 L -22 46 C -26 6, -20 -22, 0 -34 Z" fill="#0d0722" stroke="#7b53c0" stroke-width="2"/><circle cx="0" cy="-24" r="11" fill="#0d0722" stroke="#7b53c0" stroke-width="2"/><path d="M-9 8 L 9 8" stroke="#b79ae8" stroke-width="2" opacity="0.8"/></g>
<rect width="320" height="200" fill="none" stroke="#000" stroke-opacity="0.35" stroke-width="4"/>
</svg>
