<svg xmlns="http://www.w3.org/2000/svg" viewBox="0 0 320 200">
<defs><linearGradient id="sky" x1="0" y1="0" x2="0" y2="1"><stop offset="0" stop-color="#241243"/><stop offset="0.65" stop-color="#150a2c"/><stop offset="1" stop-color="#0a0518"/></linearGradient>
<radialGradient id="moon"><stop offset="0" stop-color="#c9b3ef"/><stop offset="0.55" stop-color="#7c58b8"/><stop offset="1" stop-color="#3a2470" stop-opacity="0"/></radialGradient></defs>
<rect width="320" height="200" fill="url(#sky)"/>
<circle cx="126" cy="59" r="77" fill="url(#moon)" opacity="0.85"/>
<circle cx="126" cy="59" r="40" fill="#171034" stroke="#9d7fd6" stroke-width="1.2"/>
<path d="M-10 149.46727633476257 C 91.30982995033264 99.82382655143738, 231.81827187538147 207.4993073940277, 330 93.59101891517639" stroke="#8a63c9" stroke-width="12.971524000167847" fill="none" opacity="0.12"/><path d="M-10 158.11673045158386 C 61.57384514808655 110.26004672050476, 211.58531785011292 197.39638149738312, 330 122.41151213645935" stroke="#8a63c9" stroke-width="16.542694687843323" fill="none" opacity="0.24"/><path d="M-10 98.6433607339859 C 73.38475942611694 44.1070681810379, 209.3449866771698 152.46910870075226, 330 68.16910803318024" stroke="#8a63c9" stroke-width="17.114009499549866" fill="none" opacity="0.21"/><circle cx="190" cy="109" r="1.3" fill="#d9c8f5" opacity="0.52"/><circle cx="285" cy="170" r="1.0" fill="#d9c8f5" opacity="0.69"/><circle cx="107" cy="118" r="0.5" fill="#d9c8f5" opacity="0.59"/><circle cx="70" cy="98" r="1.4" fill="#d9c8f5" opacity="0.45"/><circle cx="97" cy="73" r="0.8" fill="#d9c8f5" opacity="0.48"/><circle cx="268" cy="45" r="1.0" fill="#d9c8f5" opacity="0.87"/><circle cx="51" cy="61" r="1.1" fill="#d9c8f5" opacity="0.67"/><circle cx="26" cy="52" r="0.7" fill="#d9c8f5" opacity="0.57"/><circle cx="33" cy="108" r="1.2" fill="#d9c8f5" opacity="0.38"/><circle cx="314" cy="142" r="1.7" fill="#d9c8f5" opacity="0.67"/><circle cx="250" cy="11" r="0.7" fill="#d9c8f5" opacity="0.48"/><circle cx="167" cy="38" r="0.6" fill="#d9c8f5" opacity="0.62"/><circle cx="16" cy="115" r="1.3" fill="#d9c8f5" opacity="0.89"/><circle cx="155" cy="154" r="0.8" fill="#d9c8f5" opacity="0.76"/><circle cx="155" cy="3" r="1.2" fill="#d9c8f5" opacity="0.59"/><circle cx="203" cy="66" r="1.0" fill="#d9c8f5" opacity="0.66"/><g transform="translate(160,132)"><path d="M0 -34 C 20 -22, 26 6, 22 46 L -22 46 C -26 6, -20 -22, 0 -34 Z" fill="#0d0722" stroke="#7b53c0" stroke-width="2"/><circle cx="0" cy="-24" r="11" fill="#0d0722" stroke="#7b53c0" stroke-width="2"/><path d="M-9 8 L 9 8" stroke="#b79ae8" stroke-width="2" opacity="0.8"/></g>
<rect width="320" height="200" fill="none" stroke="#000" stroke-opacity="0.35" stroke-width="4"/>
</svg>
