<svg xmlns="http://www.w3.org/2000/svg" viewBox="0 0 320 200">
<defs><linearGradient id="sky" x1="0" y1="0" x2="0" y2="1"><stop offset="0" stop-color="#241243"/><stop offset="0.65" stop-color="#150a2c"/><stop offset="1" stop-color="#0a0518"/></linearGradient>
<radialGradient id="moon"><stop offset="0" stop-color="#c9b3ef"/><stop offset="0.55" stop-color="#7c58b8"/><stop offset="1" stop-color="#3a2470" stop-opacity="0"/></radialGradient></defs>
<rect width="320" height="200" fill="url(#sky)"/>
<circle cx="72" cy="81" r="67" fill="url(#moon)" opacity="0.85"/>
<circle cx="72" cy="81" r="35" fill="#171034" stroke="#9d7fd6" stroke-width="1.2"/>
<path d="M-10 122.16420769691467 C 75.81308126449585 62.686288356781006, 209.10580158233643 162.96961724758148, 330 71.10202670097351" stroke="#8a63c9" stroke-width="11.262476205825806" fill="none" opacity="0.12"/><path d="M-10 133.48044395446777 C 105.19342303276062 70.19732117652893, 209.6451723575592 193.44106197357178, 330 108.53807926177979" stroke="#8a63c9" stroke-width="8.031930804252625" fill="none" opacity="0.12"/><path d="M-10 169.75152790546417 C 88.7719738483429 117.74025440216064, 183.90534281730652 209.60369288921356, 330 141.13827764987946" stroke="#8a63c9" stroke-width="16.90398383140564" fill="none" opacity="0.23"/><circle cx="56" cy="162" r="0.7" fill="#d9c8f5" opacity="0.80"/><circle cx="254" cy="73" r="0.9" fill="#d9c8f5" opacity="0.52"/><circle cx="83" cy="57" r="1.7" fill="#d9c8f5" opacity="0.86"/><circle cx="141" cy="15" r="1.4" fill="#d9c8f5" opacity="0.47"/><circle cx="148" cy="30" r="1.4" fill="#d9c8f5" opacity="0.49"/><circle cx="106" cy="82" r="1.7" fill="#d9c8f5" opacity="0.86"/><circle cx="102" cy="58" r="1.2" fill="#d9c8f5" opacity="0.39"/><circle cx="18" cy="13" r="1.2" fill="#d9c8f5" opacity="0.31"/><circle cx="38" cy="177" r="1.7" fill="#d9c8f5" opacity="0.62"/><circle cx="75" cy="21" r="1.4" fill="#d9c8f5" opacity="0.83"/><circle cx="80" cy="111" r="0.8" fill="#d9c8f5" opacity="0.53"/><circle cx="186" cy="157" r="0.6" fill="#d9c8f5" opacity="0.87"/><circle cx="300" cy="196" r="1.2" fill="#d9c8f5" opacity="0.89"/><circle cx="22" cy="123" r="1.8" fill="#d9c8f5" opacity="0.65"/><circle cx="36" cy="47" r="0.6" fill="#d9c8f5" opacity="0.67"/><circle cx="36" cy="66" r="1.2" fill="#d9c8f5" opacity="0.33"/><g transform="translate(160,132)"><path d="M0 -34 C 20 -22, 26 6, 22 46 L -22 46 C -26 6, -20 -22, 0 -34 Z" fill="#0d0722" stroke="#7b53c0" stroke-width="2"/><circle cx="0" cy="-24" r="11" fill="#0d0722" stroke="#7b53c0" stroke-width="2"/><path d="M-9 8 L 9 8" stroke="#b79ae8" stroke-width="2" opacity="0.8"/></g>
<rect width="320" height="200" fill="none" stroke="#000" stroke-opacity="0.35" stroke-width="4"/>
</svg>
