<svg xmlns="http://www.w3.org/2000/svg" viewBox="0 0 320 200">
<defs><linearGradient id="sky" x1="0" y1="0" x2="0" y2="1"><stop offset="0" stop-color="#241243"/><stop offset="0.65" stop-color="#150a2c"/><stop offset="1" stop-color="#0a0518"/></linearGradient>
<radialGradient id="moon"><stop offset="0" stop-color="#c9b3ef"/><stop offset="0.55" stop-color="#7c58b8"/><stop offset="1" stop-color="#3a2470" stop-opacity="0"/></radialGradient></defs>
<rect width="320" height="200" fill="url(#sky)"/>
<circle cx="204" cy="48" r="81" fill="url(#moon)" opacity="0.85"/>
<circle cx="204" cy="48" r="43" fill="#171034" stroke="#9d7fd6" stroke-width="1.2"/>
<path d="M-10 150.43834149837494 C 93.90699863433838 82.18421459197998, 231.23019218444824 193.7619572877884, 330 113.38396728038788" stroke="#8a63c9" stroke-width="11.535457253456116" fill="none" opacity="0.24"/><path d="M-10 86.56647741794586 C 79.21342492103577 34.944835901260376, 219.62811470031738 124.47735965251923, 330 31.27613127231598" stroke="#8a63c9" stroke-width="14.158279299736023" fill="none" opacity="0.13"/><path d="M-10 147.51677989959717 C 78.5137939453125 88.10657560825348, 191.4260494709015 199.3530136346817, 330 114.81353521347046" stroke="#8a63c9" stroke-width="19.41599476337433" fill="none" opacity="0.12"/><circle cx="58" cy="183" r="1.1" fill="#d9c8f5" opacity="0.48"/><circle cx="144" cy="136" r="0.6" fill="#d9c8f5" opacity="0.72"/><circle cx="202" cy="157" r="1.3" fill="#d9c8f5" opacity="0.72"/><circle cx="60" cy="72" r="0.6" fill="#d9c8f5" opacity="0.43"/><circle cx="234" cy="76" r="1.6" fill="#d9c8f5" opacity="0.71"/><circle cx="32" cy="0" r="0.6" fill="#d9c8f5" opacity="0.72"/><circle cx="222" cy="12" r="0.8" fill="#d9c8f5" opacity="0.39"/><circle cx="106" cy="62" r="0.7" fill="#d9c8f5" opacity="0.65"/><circle cx="317" cy="10" r="0.6" fill="#d9c8f5" opacity="0.65"/><circle cx="185" cy="125" r="1.0" fill="#d9c8f5" opacity="0.39"/><circle cx="69" cy="177" r="1.3" fill="#d9c8f5" opacity="0.83"/><circle cx="121" cy="118" r="1.5" fill="#d9c8f5" opacity="0.69"/><circle cx="300" cy="128" r="1.5" fill="#d9c8f5" opacity="0.38"/><circle cx="184" cy="195" r="1.2" fill="#d9c8f5" opacity="0.68"/><circle cx="298" cy="24" r="1.5" fill="#d9c8f5" opacity="0.55"/><circle cx="117" cy="114" r="1.5" fill="#d9c8f5" opacity="0.51"/><g transform="translate(160,132)"><path d="M0 -34 C 20 -22, 26 6, 22 46 L -22 46 C -26 6, -20 -22, 0 -34 Z" fill="#0d0722" stroke="#7b53c0" stroke-width="2"/><circle cx="0" cy="-24" r="11" fill="#0d0722" stroke="#7b53c0" stroke-width="2"/><path d="M-9 8 L 9 8" stroke="#b79ae8" stroke-width="2" opacity="0.8"/></g>
<rect width="320" height="200" fill="none" stroke="#000" stroke-opacity="0.35" stroke-width="4"/>
</svg>
