<svg xmlns="http://www.w3.org/2000/svg" viewBox="0 0 320 200">
<defs><linearGradient id="sky" x1="0" y1="0" x2="0" y2="1"><stop offset="0" stop-color="#241243"/><stop offset="0.65" stop-color="#150a2c"/><stop offset="1" stop-color="#0a0518"/></linearGradient>
<radialGradient id="moon"><stop offset="0" stop-color="#c9b3ef"/><stop offset="0.55" stop-color="#7c58b8"/><stop offset="1" stop-color="#3a2470" stop-opacity="0"/></radialGradient></defs>
<rect width="320" height="200" fill="url(#sky)"/>
<circle cx="89" cy="88" r="74" fill="url(#moon)" opacity="0.85"/>
<circle cx="89" cy="88" r="39" fill="#171034" stroke="#9d7fd6" stroke-width="1.2"/>
<path d="M-10 112.83165693283081 C 75.22333145141602 45.01373589038849, 206.6382622718811 151.067653298378, 330 53.25627088546753" stroke="#8a63c9" stroke-width="9.510475993156433" fill="none" opacity="0.23"/><path d="M-10 97.84434497356415 C 115.61401605606079 50.207645297050476, 235.96447348594666 146.77917778491974, 330 48.78558099269867" stroke="#8a63c9" stroke-width="21.298405170440674" fill="none" opacity="0.14"/><path d="M-10 136.79957270622253 C 73.35249781608582 91.6575938463211, 212.99034118652344 172.86329805850983, 330 96.446133852005" stroke="#8a63c9" stroke-width="14.329492330551147" fill="none" opacity="0.13"/><circle cx="207" cy="58" r="1.0" fill="#d9c8f5" opacity="0.87"/><circle cx="145" cy="88" r="0.7" fill="#d9c8f5" opacity="0.41"/><circle cx="75" cy="110" r="1.5" fill="#d9c8f5" opacity="0.42"/><circle cx="95" cy="181" r="1.0" fill="#d9c8f5" opacity="0.53"/><circle cx="229" cy="129" r="0.6" fill="#d9c8f5" opacity="0.64"/><circle cx="146" cy="158" r="0.8" fill="#d9c8f5" opacity="0.33"/><circle cx="265" cy="156" r="1.7" fill="#d9c8f5" opacity="0.85"/><circle cx="80" cy="70" r="0.6" fill="#d9c8f5" opacity="0.75"/><circle cx="105" cy="96" r="1.1" fill="#d9c8f5" opacity="0.69"/><circle cx="216" cy="102" r="1.7" fill="#d9c8f5" opacity="0.61"/><circle cx="61" cy="167" r="1.2" fill="#d9c8f5" opacity="0.82"/><circle cx="172" cy="86" r="0.9" fill="#d9c8f5" opacity="0.59"/><circle cx="294" cy="16" r="1.5" fill="#d9c8f5" opacity="0.65"/><circle cx="202" cy="97" r="1.0" fill="#d9c8f5" opacity="0.45"/><circle cx="231" cy="22" r="1.3" fill="#d9c8f5" opacity="0.48"/><circle cx="153" cy="60" r="0.6" fill="#d9c8f5" opacity="0.34"/><g transform="translate(160,132)"><path d="M0 -34 C 20 -22, 26 6, 22 46 L -22 46 C -26 6, -20 -22, 0 -34 Z" fill="#0d0722" stroke="#7b53c0" stroke-width="2"/><circle cx="0" cy="-24" r="11" fill="#0d0722" stroke="#7b53c0" stroke-width="2"/><path d="M-9 8 L 9 8" stroke="#b79ae8" stroke-width="2" opacity="0.8"/></g>
<rect width="320" height="200" fill="none" stroke="#000" stroke-opacity="0.35" stroke-width="4"/>
</svg>
