<svg xmlns="http://www.w3.org/2000/svg" viewBox="0 0 320 200">
<defs><linearGradient id="sky" x1="0" y1="0" x2="0" y2="1"><stop offset="0" stop-color="#241243"/><stop offset="0.65" stop-color="#150a2c"/><stop offset="1" stop-color="#0a0518"/></linearGradient>
<radialGradient id="moon"><stop offset="0" stop-color="#c9b3ef"/><stop offset="0.55" stop-color="#7c58b8"/><stop offset="1" stop-color="#3a2470" stop-opacity="0"/></radialGradient></defs>
<rect width="320" height="200" fill="url(#sky)"/>
<circle cx="122" cy="71" r="86" fill="url(#moon)" opacity="0.85"/>
<circle cx="122" cy="71" r="45" fill="#171034" stroke="#9d7fd6" stroke-width="1.2"/>
<path d="M-10 62.27069675922394 C 106.70613527297974 8.922036290168762, 231.99222564697266 121.99157893657684, 330 27.774372696876526" stroke="#8a63c9" stroke-width="17.26553165912628" fill="none" opacity="0.21"/><path d="M-10 104.04174268245697 C 102.1483325958252 54.76881682872772, 186.1194097995758 159.17638182640076, 330 65.3755921125412" stroke="#8a63c9" stroke-width="17.674505472183228" fill="none" opacity="0.14"/><path d="M-10 125.40531396865845 C 85.30929565429688 80.25527060031891, 219.26878094673157 170.2828747034073, 330 72.72197961807251" stroke="#8a63c9" stroke-width="12.6272554397583" fill="none" opacity="0.13"/><circle cx="268" cy="160" r="0.8" fill="#d9c8f5" opacity="0.79"/><circle cx="159" cy="118" r="1.6" fill="#d9c8f5" opacity="0.72"/><circle cx="243" cy="134" r="0.9" fill="#d9c8f5" opacity="0.42"/><circle cx="156" cy="139" r="1.4" fill="#d9c8f5" opacity="0.50"/><circle cx="94" cy="155" r="1.0" fill="#d9c8f5" opacity="0.48"/><circle cx="71" cy="32" r="1.2" fill="#d9c8f5" opacity="0.38"/><circle cx="245" cy="43" r="1.6" fill="#d9c8f5" opacity="0.58"/><circle cx="269" cy="158" r="1.0" fill="#d9c8f5" opacity="0.78"/><circle cx="135" cy="37" r="0.7" fill="#d9c8f5" opacity="0.69"/><circle cx="16" cy="167" r="0.6" fill="#d9c8f5" opacity="0.74"/><circle cx="154" cy="146" r="1.6" fill="#d9c8f5" opacity="0.89"/><circle cx="277" cy="194" r="1.0" fill="#d9c8f5" opacity="0.72"/><circle cx="266" cy="105" r="1.4" fill="#d9c8f5" opacity="0.71"/><circle cx="4" cy="80" r="0.9" fill="#d9c8f5" opacity="0.37"/><circle cx="254" cy="145" r="1.4" fill="#d9c8f5" opacity="0.68"/><circle cx="107" cy="63" r="0.9" fill="#d9c8f5" opacity="0.81"/><g transform="translate(160,128)"><path d="M-26 -18 A 34 34 0 1 0 26 -18 A 27 27 0 1 1 -26 -18 Z" fill="#0d0722" stroke="#7b53c0" stroke-width="2"/><path d="M-34 26 L 34 -10 M -20 36 L 30 8 M -6 44 L 26 26" stroke="#b79ae8" stroke-width="2.4" opacity="0.85"/></g>
<rect width="320" height="200" fill="none" stroke="#000" stroke-opacity="0.35" stroke-width="4"/>
</svg>
