<svg xmlns="http://www.w3.org/2000/svg" viewBox="0 0 320 200">
<defs><linearGradient id="sky" x1="0" y1="0" x2="0" y2="1"><stop offset="0" stop-color="#241243"/><stop offset="0.65" stop-color="#150a2c"/><stop offset="1" stop-color="#0a0518"/></linearGradient>
<radialGradient id="moon"><stop offset="0" stop-color="#c9b3ef"/><stop offset="0.55" stop-color="#7c58b8"/><stop offset="1" stop-color="#3a2470" stop-opacity="0"/></radialGradient></defs>
<rect width="320" height="200" fill="url(#sky)"/>
<circle cx="68" cy="51" r="61" fill="url(#moon)" opacity="0.85"/>
<circle cx="68" cy="51" r="32" fill="#171034" stroke="#9d7fd6" stroke-width="1.2"/>
<path d="M-10 82.54663467407227 C 67.65390515327454 33.78101289272308, 195.1451575756073 135.3906798362732, 330 33.56637001037598" stroke="#8a63c9" stroke-width="11.407302618026733" fill="none" opacity="0.12"/><path d="M-10 149.43606734275818 C 116.44105911254883 87.25643754005432, 219.1890013217926 194.08877313137054, 330 102.99266695976257" stroke="#8a63c9" stroke-width="19.894542932510376" fill="none" opacity="0.20"/><path d="M-10 127.05685317516327 C 87.13667035102844 84.58610415458679, 197.3479199409485 182.36037135124207, 330 86.43830478191376" stroke="#8a63c9" stroke-width="13.176108956336975" fill="none" opacity="0.11"/><circle cx="141" cy="191" r="0.5" fill="#d9c8f5" opacity="0.70"/><circle cx="167" cy="17" r="1.6" fill="#d9c8f5" opacity="0.76"/><circle cx="263" cy="54" r="0.8" fill="#d9c8f5" opacity="0.58"/><circle cx="226" cy="82" r="0.7" fill="#d9c8f5" opacity="0.61"/><circle cx="312" cy="32" r="1.0" fill="#d9c8f5" opacity="0.57"/><circle cx="124" cy="197" r="1.5" fill="#d9c8f5" opacity="0.88"/><circle cx="137" cy="2" r="0.7" fill="#d9c8f5" opacity="0.65"/><circle cx="143" cy="169" r="1.1" fill="#d9c8f5" opacity="0.39"/><circle cx="75" cy="112" r="1.4" fill="#d9c8f5" opacity="0.52"/><circle cx="193" cy="108" r="0.7" fill="#d9c8f5" opacity="0.58"/><circle cx="219" cy="125" r="0.7" fill="#d9c8f5" opacity="0.89"/><circle cx="224" cy="75" r="1.4" fill="#d9c8f5" opacity="0.32"/><circle cx="217" cy="141" r="1.1" fill="#d9c8f5" opacity="0.73"/><circle cx="162" cy="188" r="1.5" fill="#d9c8f5" opacity="0.83"/><circle cx="33" cy="172" r="1.2" fill="#d9c8f5" opacity="0.56"/><circle cx="220" cy="105" r="1.8" fill="#d9c8f5" opacity="0.48"/><g transform="translate(160,132)"><path d="M0 -34 C 20 -22, 26 6, 22 46 L -22 46 C -26 6, -20 -22, 0 -34 Z" fill="#0d0722" stroke="#7b53c0" stroke-width="2"/><circle cx="0" cy="-24" r="11" fill="#0d0722" stroke="#7b53c0" stroke-width="2"/><path d="M-9 8 L 9 8" stroke="#b79ae8" stroke-width="2" opacity="0.8"/></g>
<rect width="320" height="200" fill="none" stroke="#000" stroke-opacity="0.35" stroke-width="4"/>
</svg>
