<svg xmlns="http://www.w3.org/2000/svg" viewBox="0 0 320 200">
<defs><linearGradient id="sky" x1="0" y1="0" x2="0" y2="1"><stop offset="0" stop-color="#241243"/><stop offset="0.65" stop-color="#150a2c"/><stop offset="1" stop-color="#0a0518"/></linearGradient>
<radialGradient id="moon"><stop offset="0" stop-color="#c9b3ef"/><stop offset="0.55" stop-color="#7c58b8"/><stop offset="1" stop-color="#3a2470" stop-opacity="0"/></radialGradient></defs>
<rect width="320" height="200" fill="url(#sky)"/>
<circle cx="257" cy="68" r="58" fill="url(#moon)" opacity="0.85"/>
<circle cx="257" cy="68" r="30" fill="#171034" stroke="#9d7fd6" stroke-width="1.2"/>
<path d="M-10 65.78515708446503 C 86.82685732841492 7.469151020050049, 217.0283854007721 104.8185384273529, 330 6.016156077384949" stroke="#8a63c9" stroke-width="15.353904128074646" fill="none" opacity="0.17"/><path d="M-10 156.25883162021637 C 110.62293648719788 92.97168552875519, 212.8551721572876 197.88591265678406, 330 133.21610271930695" stroke="#8a63c9" stroke-width="18.854604244232178" fill="none" opacity="0.22"/><path d="M-10 162.58752346038818 C 100.96216678619385 96.95584237575531, 181.4946162700653 206.19073271751404, 330 140.49129009246826" stroke="#8a63c9" stroke-width="13.73737347126007" fill="none" opacity="0.18"/><circle cx="27" cy="164" r="1.5" fill="#d9c8f5" opacity="0.85"/><circle cx="279" cy="175" r="0.9" fill="#d9c8f5" opacity="0.66"/><circle cx="83" cy="105" r="0.9" fill="#d9c8f5" opacity="0.30"/><circle cx="45" cy="199" r="1.5" fill="#d9c8f5" opacity="0.85"/><circle cx="78" cy="189" r="1.2" fill="#d9c8f5" opacity="0.73"/><circle cx="218" cy="125" r="0.9" fill="#d9c8f5" opacity="0.52"/><circle cx="236" cy="176" r="1.0" fill="#d9c8f5" opacity="0.48"/><circle cx="179" cy="116" r="0.8" fill="#d9c8f5" opacity="0.71"/><circle cx="93" cy="99" r="1.6" fill="#d9c8f5" opacity="0.59"/><circle cx="257" cy="64" r="0.8" fill="#d9c8f5" opacity="0.88"/><circle cx="232" cy="191" r="1.0" fill="#d9c8f5" opacity="0.65"/><circle cx="79" cy="196" r="0.6" fill="#d9c8f5" opacity="0.89"/><circle cx="186" cy="178" r="0.6" fill="#d9c8f5" opacity="0.52"/><circle cx="147" cy="157" r="1.1" fill="#d9c8f5" opacity="0.58"/><circle cx="196" cy="56" r="1.5" fill="#d9c8f5" opacity="0.57"/><circle cx="29" cy="25" r="1.7" fill="#d9c8f5" opacity="0.78"/><g transform="translate(160,128)"><path d="M-26 -18 A 34 34 0 1 0 26 -18 A 27 27 0 1 1 -26 -18 Z" fill="#0d0722" stroke="#7b53c0" stroke-width="2"/><path d="M-34 26 L 34 -10 M -20 36 L 30 8 M -6 44 L 26 26" stroke="#b79ae8" stroke-width="2.4" opacity="0.85"/></g>
<rect width="320" height="200" fill="none" stroke="#000" stroke-opacity="0.35" stroke-width="4"/>
</svg>
